<svg version="1.1" xmlns="http://www.w3.org/2000/svg" xmlns:xlink="http://www.w3.org/1999/xlink" width="659" height="300"><defs/><g><text fill="#eeeeee" stroke="none" font-family="Arial" font-size="24px" font-style="normal" font-weight="normal" text-decoration="none" x="0" y="0"></text><text fill="#eeeeee" stroke="none" font-family="Arial" font-size="24px" font-style="normal" font-weight="normal" text-decoration="none" x="0" y="30"></text><text fill="#eeeeee" stroke="none" font-family="Arial" font-size="24px" font-style="normal" font-weight="normal" text-decoration="none" x="0" y="60"></text><text fill="#eeeeee" stroke="none" font-family="Arial" font-size="24px" font-style="normal" font-weight="normal" text-decoration="none" x="0" y="90"></text><text fill="#eeeeee" stroke="none" font-family="Arial" font-size="24px" font-style="normal" font-weight="normal" text-decoration="none" x="0" y="120"></text><text fill="#eeeeee" stroke="none" font-family="Arial" font-size="24px" font-style="normal" font-weight="normal" text-decoration="none" x="0" y="150"></text><text fill="#eeeeee" stroke="none" font-family="Arial" font-size="24px" font-style="normal" font-weight="normal" text-decoration="none" x="0" y="180"></text><text fill="#eeeeee" stroke="none" font-family="Arial" font-size="24px" font-style="normal" font-weight="normal" text-decoration="none" x="0" y="210"></text><text fill="#eeeeee" stroke="none" font-family="Arial" font-size="24px" font-style="normal" font-weight="normal" text-decoration="none" x="0" y="240"></text><text fill="#eeeeee" stroke="none" font-family="Arial" font-size="24px" font-style="normal" font-weight="normal" text-decoration="none" x="0" y="270"></text><text fill="#eeeeee" stroke="none" font-family="Arial" font-size="24px" font-style="normal" font-weight="normal" text-decoration="none" x="200" y="0"></text><text fill="#eeeeee" stroke="none" font-family="Arial" font-size="24px" font-style="normal" font-weight="normal" text-decoration="none" x="200" y="30"></text><text fill="#eeeeee" stroke="none" font-family="Arial" font-size="24px" font-style="normal" font-weight="normal" text-decoration="none" x="200" y="60"></text><text fill="#eeeeee" stroke="none" font-family="Arial" font-size="24px" font-style="normal" font-weight="normal" text-decoration="none" x="200" y="90"></text><text fill="#eeeeee" stroke="none" font-family="Arial" font-size="24px" font-style="normal" font-weight="normal" text-decoration="none" x="200" y="120"></text><text fill="#eeeeee" stroke="none" font-family="Arial" font-size="24px" font-style="normal" font-weight="normal" text-decoration="none" x="200" y="150"></text><text fill="#eeeeee" stroke="none" font-family="Arial" font-size="24px" font-style="normal" font-weight="normal" text-decoration="none" x="200" y="180"></text><text fill="#eeeeee" stroke="none" font-family="Arial" font-size="24px" font-style="normal" font-weight="normal" text-decoration="none" x="200" y="210"></text><text fill="#eeeeee" stroke="none" font-family="Arial" font-size="24px" font-style="normal" font-weight="normal" text-decoration="none" x="200" y="240"></text><text fill="#eeeeee" stroke="none" font-family="Arial" font-size="24px" font-style="normal" font-weight="normal" text-decoration="none" x="200" y="270"></text><text fill="#eeeeee" stroke="none" font-family="Arial" font-size="24px" font-style="normal" font-weight="normal" text-decoration="none" x="400" y="0"></text><text fill="#eeeeee" stroke="none" font-family="Arial" font-size="24px" font-style="normal" font-weight="normal" text-decoration="none" x="400" y="30"></text><text fill="#eeeeee" stroke="none" font-family="Arial" font-size="24px" font-style="normal" font-weight="normal" text-decoration="none" x="400" y="60"></text><text fill="#eeeeee" stroke="none" font-family="Arial" font-size="24px" font-style="normal" font-weight="normal" text-decoration="none" x="400" y="90"></text><text fill="#eeeeee" stroke="none" font-family="Arial" font-size="24px" font-style="normal" font-weight="normal" text-decoration="none" x="400" y="120"></text><text fill="#eeeeee" stroke="none" font-family="Arial" font-size="24px" font-style="normal" font-weight="normal" text-decoration="none" x="400" y="150"></text><text fill="#eeeeee" stroke="none" font-family="Arial" font-size="24px" font-style="normal" font-weight="normal" text-decoration="none" x="400" y="180"></text><text fill="#eeeeee" stroke="none" font-family="Arial" font-size="24px" font-style="normal" font-weight="normal" text-decoration="none" x="400" y="210"></text><text fill="#eeeeee" stroke="none" font-family="Arial" font-size="24px" font-style="normal" font-weight="normal" text-decoration="none" x="400" y="240"></text><text fill="#eeeeee" stroke="none" font-family="Arial" font-size="24px" font-style="normal" font-weight="normal" text-decoration="none" x="400" y="270"></text><text fill="#eeeeee" stroke="none" font-family="Arial" font-size="24px" font-style="normal" font-weight="normal" text-decoration="none" x="600" y="0"></text><text fill="#eeeeee" stroke="none" font-family="Arial" font-size="24px" font-style="normal" font-weight="normal" text-decoration="none" x="600" y="30"></text><text fill="#eeeeee" stroke="none" font-family="Arial" font-size="24px" font-style="normal" font-weight="normal" text-decoration="none" x="600" y="60"></text><text fill="#eeeeee" stroke="none" font-family="Arial" font-size="24px" font-style="normal" font-weight="normal" text-decoration="none" x="600" y="90"></text><text fill="#eeeeee" stroke="none" font-family="Arial" font-size="24px" font-style="normal" font-weight="normal" text-decoration="none" x="600" y="120"></text><text fill="#eeeeee" stroke="none" font-family="Arial" font-size="24px" font-style="normal" font-weight="normal" text-decoration="none" x="600" y="150"></text><text fill="#eeeeee" stroke="none" font-family="Arial" font-size="24px" font-style="normal" font-weight="normal" text-decoration="none" x="600" y="180"></text><text fill="#eeeeee" stroke="none" font-family="Arial" font-size="24px" font-style="normal" font-weight="normal" text-decoration="none" x="600" y="210"></text><text fill="#eeeeee" stroke="none" font-family="Arial" font-size="24px" font-style="normal" font-weight="normal" text-decoration="none" x="600" y="240"></text><text fill="#eeeeee" stroke="none" font-family="Arial" font-size="24px" font-style="normal" font-weight="normal" text-decoration="none" x="600" y="270"></text><g transform="translate(-94,-142) scale(1,1)"><path fill="#C0C0C0" stroke="none" d="M 111 185 L 348 185 L 348 422 L 111 422" opacity="0.2"/></g><g transform="translate(-94,-142) scale(1,1)"><path fill="#C0C0C0" stroke="none" d="M 111 185 L 121 175 L 358 175 L 348 185" opacity="0.2"/></g><g transform="translate(-94,-142) scale(1,1)"><path fill="#C0C0C0" stroke="none" d="M 358 175 L 348 185 L 348 422 L 358 412" opacity="0.2"/></g><g transform="translate(-94,-142) scale(1,1)"><path fill="#ffffff" stroke="none" d="M 104 178 L 341 178 L 341 415 L 104 415"/></g><g transform="translate(-94,-142) scale(1,1)"><path fill="#ffffff" stroke="none" d="M 104 178 L 114 168 L 351 168 L 341 178"/></g><g transform="translate(-94,-142) scale(1,1)"><path fill="#ffffff" stroke="none" d="M 351 168 L 341 178 L 341 415 L 351 405"/></g><g transform="translate(-94,-142) scale(1,1)"><path fill="none" stroke="#000000" d="M 104 178 L 341 178 L 341 415 L 104 415 L 104 178" stroke-miterlimit="10"/></g><g transform="translate(-94,-142) scale(1,1)"><path fill="none" stroke="#000000" d="M 104 178 L 114 168 L 351 168 L 341 178 L 104 178" stroke-miterlimit="10"/></g><g transform="translate(-94,-142) scale(1,1)"><path fill="none" stroke="#000000" d="M 351 168 L 341 178 L 341 415 L 351 405 L 351 168" stroke-miterlimit="10"/></g><g transform="translate(-94,-142) scale(1,1)"><g><path fill="none" stroke="none"/><text fill="#000000" stroke="none" font-family="Arial" font-size="13px" font-style="normal" font-weight="bold" text-decoration="none" x="204.093505859375" y="197.5">Клієнт</text></g></g><g transform="translate(-94,-142) scale(1,1)"><rect fill="#C0C0C0" stroke="none" x="137" y="223" width="150" height="44" opacity="0.2"/></g><g transform="translate(-94,-142) scale(1,1)"><rect fill="#ffffff" stroke="none" x="130" y="216" width="150" height="44"/></g><g transform="translate(-94,-142) scale(1,1)"><path fill="none" stroke="#000000" d="M 130 216 L 280 216 L 280 260 L 130 260 L 130 216 Z Z" stroke-miterlimit="10"/></g><g transform="translate(-94,-142) scale(1,1)"><rect fill="#ffffff" stroke="none" x="120" y="223" width="20" height="10"/></g><g transform="translate(-94,-142) scale(1,1)"><path fill="none" stroke="#000000" d="M 120 223 L 140 223 L 140 233 L 120 233 L 120 223 Z Z" stroke-miterlimit="10"/></g><g transform="translate(-94,-142) scale(1,1)"><rect fill="#ffffff" stroke="none" x="120" y="243" width="20" height="10"/></g><g transform="translate(-94,-142) scale(1,1)"><path fill="none" stroke="#000000" d="M 120 243 L 140 243 L 140 253 L 120 253 L 120 243 Z Z" stroke-miterlimit="10"/></g><g transform="translate(-94,-142) scale(1,1)"><g><path fill="none" stroke="none"/><text fill="#000000" stroke="none" font-family="Arial" font-size="13px" font-style="normal" font-weight="bold" text-decoration="none" x="172.342529296875" y="235.5">Веб-додаток</text></g></g><g transform="translate(-94,-142) scale(1,1)"><rect fill="#C0C0C0" stroke="none" x="137" y="287" width="150" height="44" opacity="0.2"/></g><g transform="translate(-94,-142) scale(1,1)"><rect fill="#ffffff" stroke="none" x="130" y="280" width="150" height="44"/></g><g transform="translate(-94,-142) scale(1,1)"><path fill="none" stroke="#000000" d="M 130 280 L 280 280 L 280 324 L 130 324 L 130 280 Z Z" stroke-miterlimit="10"/></g><g transform="translate(-94,-142) scale(1,1)"><rect fill="#ffffff" stroke="none" x="120" y="287" width="20" height="10"/></g><g transform="translate(-94,-142) scale(1,1)"><path fill="none" stroke="#000000" d="M 120 287 L 140 287 L 140 297 L 120 297 L 120 287 Z Z" stroke-miterlimit="10"/></g><g transform="translate(-94,-142) scale(1,1)"><rect fill="#ffffff" stroke="none" x="120" y="307" width="20" height="10"/></g><g transform="translate(-94,-142) scale(1,1)"><path fill="none" stroke="#000000" d="M 120 307 L 140 307 L 140 317 L 120 317 L 120 307 Z Z" stroke-miterlimit="10"/></g><g transform="translate(-94,-142) scale(1,1)"><g><path fill="none" stroke="none"/><text fill="#000000" stroke="none" font-family="Arial" font-size="13px" font-style="normal" font-weight="bold" text-decoration="none" x="161.8974609375" y="299.5">Android додаток</text></g></g><g transform="translate(-94,-142) scale(1,1)"><rect fill="#C0C0C0" stroke="none" x="137" y="351" width="150" height="44" opacity="0.2"/></g><g transform="translate(-94,-142) scale(1,1)"><rect fill="#ffffff" stroke="none" x="130" y="344" width="150" height="44"/></g><g transform="translate(-94,-142) scale(1,1)"><path fill="none" stroke="#000000" d="M 130 344 L 280 344 L 280 388 L 130 388 L 130 344 Z Z" stroke-miterlimit="10"/></g><g transform="translate(-94,-142) scale(1,1)"><rect fill="#ffffff" stroke="none" x="120" y="351" width="20" height="10"/></g><g transform="translate(-94,-142) scale(1,1)"><path fill="none" stroke="#000000" d="M 120 351 L 140 351 L 140 361 L 120 361 L 120 351 Z Z" stroke-miterlimit="10"/></g><g transform="translate(-94,-142) scale(1,1)"><rect fill="#ffffff" stroke="none" x="120" y="371" width="20" height="10"/></g><g transform="translate(-94,-142) scale(1,1)"><path fill="none" stroke="#000000" d="M 120 371 L 140 371 L 140 381 L 120 381 L 120 371 Z Z" stroke-miterlimit="10"/></g><g transform="translate(-94,-142) scale(1,1)"><g><path fill="none" stroke="none"/><text fill="#000000" stroke="none" font-family="Arial" font-size="13px" font-style="normal" font-weight="bold" text-decoration="none" x="173.104248046875" y="363.5">IOS додаток</text></g></g><g transform="translate(-94,-142) scale(1,1)"><path fill="#C0C0C0" stroke="none" d="M 503 169 L 739 169 L 739 438 L 503 438" opacity="0.2"/></g><g transform="translate(-94,-142) scale(1,1)"><path fill="#C0C0C0" stroke="none" d="M 503 169 L 513 159 L 749 159 L 739 169" opacity="0.2"/></g><g transform="translate(-94,-142) scale(1,1)"><path fill="#C0C0C0" stroke="none" d="M 749 159 L 739 169 L 739 438 L 749 428" opacity="0.2"/></g><g transform="translate(-94,-142) scale(1,1)"><path fill="#ffffff" stroke="none" d="M 496 162 L 732 162 L 732 431 L 496 431"/></g><g transform="translate(-94,-142) scale(1,1)"><path fill="#ffffff" stroke="none" d="M 496 162 L 506 152 L 742 152 L 732 162"/></g><g transform="translate(-94,-142) scale(1,1)"><path fill="#ffffff" stroke="none" d="M 742 152 L 732 162 L 732 431 L 742 421"/></g><g transform="translate(-94,-142) scale(1,1)"><path fill="none" stroke="#000000" d="M 496 162 L 732 162 L 732 431 L 496 431 L 496 162" stroke-miterlimit="10"/></g><g transform="translate(-94,-142) scale(1,1)"><path fill="none" stroke="#000000" d="M 496 162 L 506 152 L 742 152 L 732 162 L 496 162" stroke-miterlimit="10"/></g><g transform="translate(-94,-142) scale(1,1)"><path fill="none" stroke="#000000" d="M 742 152 L 732 162 L 732 431 L 742 421 L 742 152" stroke-miterlimit="10"/></g><g transform="translate(-94,-142) scale(1,1)"><g><path fill="none" stroke="none"/><text fill="#000000" stroke="none" font-family="Arial" font-size="13px" font-style="normal" font-weight="bold" text-decoration="none" x="591.9658203125" y="181.5">Сервер</text></g></g><g transform="translate(-94,-142) scale(1,1)"><rect fill="#C0C0C0" stroke="none" x="529" y="199" width="174" height="47" opacity="0.2"/></g><g transform="translate(-94,-142) scale(1,1)"><rect fill="#ffffff" stroke="none" x="522" y="192" width="174" height="47"/></g><g transform="translate(-94,-142) scale(1,1)"><path fill="none" stroke="#000000" d="M 522 192 L 696 192 L 696 239 L 522 239 L 522 192 Z Z" stroke-miterlimit="10"/></g><g transform="translate(-94,-142) scale(1,1)"><rect fill="#ffffff" stroke="none" x="512" y="199" width="20" height="10"/></g><g transform="translate(-94,-142) scale(1,1)"><path fill="none" stroke="#000000" d="M 512 199 L 532 199 L 532 209 L 512 209 L 512 199 Z Z" stroke-miterlimit="10"/></g><g transform="translate(-94,-142) scale(1,1)"><rect fill="#ffffff" stroke="none" x="512" y="219" width="20" height="10"/></g><g transform="translate(-94,-142) scale(1,1)"><path fill="none" stroke="#000000" d="M 512 219 L 532 219 L 532 229 L 512 229 L 512 219 Z Z" stroke-miterlimit="10"/></g><g transform="translate(-94,-142) scale(1,1)"><g><path fill="none" stroke="none"/><text fill="#000000" stroke="none" font-family="Arial" font-size="13px" font-style="normal" font-weight="bold" text-decoration="none" x="545.651611328125" y="211.5">Сервер автентифікації</text><text fill="#000000" stroke="none" font-family="Arial" font-size="13px" font-style="normal" font-weight="bold" text-decoration="none" x="588.7109375" y="224.5">Firebase</text></g></g><g transform="translate(-94,-142) scale(1,1)"><rect fill="#C0C0C0" stroke="none" x="529" y="255" width="174" height="47" opacity="0.2"/></g><g transform="translate(-94,-142) scale(1,1)"><rect fill="#ffffff" stroke="none" x="522" y="248" width="174" height="47"/></g><g transform="translate(-94,-142) scale(1,1)"><path fill="none" stroke="#000000" d="M 522 248 L 696 248 L 696 295 L 522 295 L 522 248 Z Z" stroke-miterlimit="10"/></g><g transform="translate(-94,-142) scale(1,1)"><rect fill="#ffffff" stroke="none" x="512" y="255" width="20" height="10"/></g><g transform="translate(-94,-142) scale(1,1)"><path fill="none" stroke="#000000" d="M 512 255 L 532 255 L 532 265 L 512 265 L 512 255 Z Z" stroke-miterlimit="10"/></g><g transform="translate(-94,-142) scale(1,1)"><rect fill="#ffffff" stroke="none" x="512" y="275" width="20" height="10"/></g><g transform="translate(-94,-142) scale(1,1)"><path fill="none" stroke="#000000" d="M 512 275 L 532 275 L 532 285 L 512 285 L 512 275 Z Z" stroke-miterlimit="10"/></g><g transform="translate(-94,-142) scale(1,1)"><g><path fill="none" stroke="none"/><text fill="#000000" stroke="none" font-family="Arial" font-size="13px" font-style="normal" font-weight="bold" text-decoration="none" x="584.3818359375" y="267.5">REST API</text></g></g><g transform="translate(-94,-142) scale(1,1)"><rect fill="#C0C0C0" stroke="none" x="529" y="319" width="174" height="47" opacity="0.2"/></g><g transform="translate(-94,-142) scale(1,1)"><rect fill="#ffffff" stroke="none" x="522" y="312" width="174" height="47"/></g><g transform="translate(-94,-142) scale(1,1)"><path fill="none" stroke="#000000" d="M 522 312 L 696 312 L 696 359 L 522 359 L 522 312 Z Z" stroke-miterlimit="10"/></g><g transform="translate(-94,-142) scale(1,1)"><rect fill="#ffffff" stroke="none" x="512" y="319" width="20" height="10"/></g><g transform="translate(-94,-142) scale(1,1)"><path fill="none" stroke="#000000" d="M 512 319 L 532 319 L 532 329 L 512 329 L 512 319 Z Z" stroke-miterlimit="10"/></g><g transform="translate(-94,-142) scale(1,1)"><rect fill="#ffffff" stroke="none" x="512" y="339" width="20" height="10"/></g><g transform="translate(-94,-142) scale(1,1)"><path fill="none" stroke="#000000" d="M 512 339 L 532 339 L 532 349 L 512 349 L 512 339 Z Z" stroke-miterlimit="10"/></g><g transform="translate(-94,-142) scale(1,1)"><g><path fill="none" stroke="none"/><text fill="#000000" stroke="none" font-family="Arial" font-size="13px" font-style="normal" font-weight="bold" text-decoration="none" x="579.9130859375" y="331.5">База даних</text></g></g><g transform="translate(-94,-142) scale(1,1)"><rect fill="#C0C0C0" stroke="none" x="529" y="375" width="174" height="47" opacity="0.2"/></g><g transform="translate(-94,-142) scale(1,1)"><rect fill="#ffffff" stroke="none" x="522" y="368" width="174" height="47"/></g><g transform="translate(-94,-142) scale(1,1)"><path fill="none" stroke="#000000" d="M 522 368 L 696 368 L 696 415 L 522 415 L 522 368 Z Z" stroke-miterlimit="10"/></g><g transform="translate(-94,-142) scale(1,1)"><rect fill="#ffffff" stroke="none" x="512" y="375" width="20" height="10"/></g><g transform="translate(-94,-142) scale(1,1)"><path fill="none" stroke="#000000" d="M 512 375 L 532 375 L 532 385 L 512 385 L 512 375 Z Z" stroke-miterlimit="10"/></g><g transform="translate(-94,-142) scale(1,1)"><rect fill="#ffffff" stroke="none" x="512" y="395" width="20" height="10"/></g><g transform="translate(-94,-142) scale(1,1)"><path fill="none" stroke="#000000" d="M 512 395 L 532 395 L 532 405 L 512 405 L 512 395 Z Z" stroke-miterlimit="10"/></g><g transform="translate(-94,-142) scale(1,1)"><g><path fill="none" stroke="none"/><text fill="#000000" stroke="none" font-family="Arial" font-size="13px" font-style="normal" font-weight="bold" text-decoration="none" x="567.357421875" y="387.5">Сервіс обробки</text><text fill="#000000" stroke="none" font-family="Arial" font-size="13px" font-style="normal" font-weight="bold" text-decoration="none" x="577.86279296875" y="400.5">зображення</text></g></g><g transform="translate(-94,-142) scale(1,1)"><path fill="none" stroke="#000000" d="M 353 292 L 495 292" stroke-miterlimit="10"/></g><g transform="translate(-94,-142) scale(1,1)"><g><path fill="none" stroke="none"/><text fill="#000000" stroke="none" font-family="Arial" font-size="13px" font-style="normal" font-weight="normal" text-decoration="none" x="390.5" y="283.5">+http запит</text></g></g></g></svg>