<svg version="1.1" xmlns="http://www.w3.org/2000/svg" xmlns:xlink="http://www.w3.org/1999/xlink" width="578.17724609375" height="788"><defs/><g><text fill="#eeeeee" stroke="none" font-family="Arial" font-size="24px" font-style="normal" font-weight="normal" text-decoration="none" x="0" y="0"></text><text fill="#eeeeee" stroke="none" font-family="Arial" font-size="24px" font-style="normal" font-weight="normal" text-decoration="none" x="0" y="30"></text><text fill="#eeeeee" stroke="none" font-family="Arial" font-size="24px" font-style="normal" font-weight="normal" text-decoration="none" x="0" y="60"></text><text fill="#eeeeee" stroke="none" font-family="Arial" font-size="24px" font-style="normal" font-weight="normal" text-decoration="none" x="0" y="90"></text><text fill="#eeeeee" stroke="none" font-family="Arial" font-size="24px" font-style="normal" font-weight="normal" text-decoration="none" x="0" y="120"></text><text fill="#eeeeee" stroke="none" font-family="Arial" font-size="24px" font-style="normal" font-weight="normal" text-decoration="none" x="0" y="150"></text><text fill="#eeeeee" stroke="none" font-family="Arial" font-size="24px" font-style="normal" font-weight="normal" text-decoration="none" x="0" y="180"></text><text fill="#eeeeee" stroke="none" font-family="Arial" font-size="24px" font-style="normal" font-weight="normal" text-decoration="none" x="0" y="210"></text><text fill="#eeeeee" stroke="none" font-family="Arial" font-size="24px" font-style="normal" font-weight="normal" text-decoration="none" x="0" y="240"></text><text fill="#eeeeee" stroke="none" font-family="Arial" font-size="24px" font-style="normal" font-weight="normal" text-decoration="none" x="0" y="270"></text><text fill="#eeeeee" stroke="none" font-family="Arial" font-size="24px" font-style="normal" font-weight="normal" text-decoration="none" x="0" y="300"></text><text fill="#eeeeee" stroke="none" font-family="Arial" font-size="24px" font-style="normal" font-weight="normal" text-decoration="none" x="0" y="330"></text><text fill="#eeeeee" stroke="none" font-family="Arial" font-size="24px" font-style="normal" font-weight="normal" text-decoration="none" x="0" y="360"></text><text fill="#eeeeee" stroke="none" font-family="Arial" font-size="24px" font-style="normal" font-weight="normal" text-decoration="none" x="0" y="390"></text><text fill="#eeeeee" stroke="none" font-family="Arial" font-size="24px" font-style="normal" font-weight="normal" text-decoration="none" x="0" y="420"></text><text fill="#eeeeee" stroke="none" font-family="Arial" font-size="24px" font-style="normal" font-weight="normal" text-decoration="none" x="0" y="450"></text><text fill="#eeeeee" stroke="none" font-family="Arial" font-size="24px" font-style="normal" font-weight="normal" text-decoration="none" x="0" y="480"></text><text fill="#eeeeee" stroke="none" font-family="Arial" font-size="24px" font-style="normal" font-weight="normal" text-decoration="none" x="0" y="510"></text><text fill="#eeeeee" stroke="none" font-family="Arial" font-size="24px" font-style="normal" font-weight="normal" text-decoration="none" x="0" y="540"></text><text fill="#eeeeee" stroke="none" font-family="Arial" font-size="24px" font-style="normal" font-weight="normal" text-decoration="none" x="0" y="570"></text><text fill="#eeeeee" stroke="none" font-family="Arial" font-size="24px" font-style="normal" font-weight="normal" text-decoration="none" x="0" y="600"></text><text fill="#eeeeee" stroke="none" font-family="Arial" font-size="24px" font-style="normal" font-weight="normal" text-decoration="none" x="0" y="630"></text><text fill="#eeeeee" stroke="none" font-family="Arial" font-size="24px" font-style="normal" font-weight="normal" text-decoration="none" x="0" y="660"></text><text fill="#eeeeee" stroke="none" font-family="Arial" font-size="24px" font-style="normal" font-weight="normal" text-decoration="none" x="0" y="690"></text><text fill="#eeeeee" stroke="none" font-family="Arial" font-size="24px" font-style="normal" font-weight="normal" text-decoration="none" x="0" y="720"></text><text fill="#eeeeee" stroke="none" font-family="Arial" font-size="24px" font-style="normal" font-weight="normal" text-decoration="none" x="0" y="750"></text><text fill="#eeeeee" stroke="none" font-family="Arial" font-size="24px" font-style="normal" font-weight="normal" text-decoration="none" x="0" y="780"></text><text fill="#eeeeee" stroke="none" font-family="Arial" font-size="24px" font-style="normal" font-weight="normal" text-decoration="none" x="200" y="0"></text><text fill="#eeeeee" stroke="none" font-family="Arial" font-size="24px" font-style="normal" font-weight="normal" text-decoration="none" x="200" y="30"></text><text fill="#eeeeee" stroke="none" font-family="Arial" font-size="24px" font-style="normal" font-weight="normal" text-decoration="none" x="200" y="60"></text><text fill="#eeeeee" stroke="none" font-family="Arial" font-size="24px" font-style="normal" font-weight="normal" text-decoration="none" x="200" y="90"></text><text fill="#eeeeee" stroke="none" font-family="Arial" font-size="24px" font-style="normal" font-weight="normal" text-decoration="none" x="200" y="120"></text><text fill="#eeeeee" stroke="none" font-family="Arial" font-size="24px" font-style="normal" font-weight="normal" text-decoration="none" x="200" y="150"></text><text fill="#eeeeee" stroke="none" font-family="Arial" font-size="24px" font-style="normal" font-weight="normal" text-decoration="none" x="200" y="180"></text><text fill="#eeeeee" stroke="none" font-family="Arial" font-size="24px" font-style="normal" font-weight="normal" text-decoration="none" x="200" y="210"></text><text fill="#eeeeee" stroke="none" font-family="Arial" font-size="24px" font-style="normal" font-weight="normal" text-decoration="none" x="200" y="240"></text><text fill="#eeeeee" stroke="none" font-family="Arial" font-size="24px" font-style="normal" font-weight="normal" text-decoration="none" x="200" y="270"></text><text fill="#eeeeee" stroke="none" font-family="Arial" font-size="24px" font-style="normal" font-weight="normal" text-decoration="none" x="200" y="300"></text><text fill="#eeeeee" stroke="none" font-family="Arial" font-size="24px" font-style="normal" font-weight="normal" text-decoration="none" x="200" y="330"></text><text fill="#eeeeee" stroke="none" font-family="Arial" font-size="24px" font-style="normal" font-weight="normal" text-decoration="none" x="200" y="360"></text><text fill="#eeeeee" stroke="none" font-family="Arial" font-size="24px" font-style="normal" font-weight="normal" text-decoration="none" x="200" y="390"></text><text fill="#eeeeee" stroke="none" font-family="Arial" font-size="24px" font-style="normal" font-weight="normal" text-decoration="none" x="200" y="420"></text><text fill="#eeeeee" stroke="none" font-family="Arial" font-size="24px" font-style="normal" font-weight="normal" text-decoration="none" x="200" y="450"></text><text fill="#eeeeee" stroke="none" font-family="Arial" font-size="24px" font-style="normal" font-weight="normal" text-decoration="none" x="200" y="480"></text><text fill="#eeeeee" stroke="none" font-family="Arial" font-size="24px" font-style="normal" font-weight="normal" text-decoration="none" x="200" y="510"></text><text fill="#eeeeee" stroke="none" font-family="Arial" font-size="24px" font-style="normal" font-weight="normal" text-decoration="none" x="200" y="540"></text><text fill="#eeeeee" stroke="none" font-family="Arial" font-size="24px" font-style="normal" font-weight="normal" text-decoration="none" x="200" y="570"></text><text fill="#eeeeee" stroke="none" font-family="Arial" font-size="24px" font-style="normal" font-weight="normal" text-decoration="none" x="200" y="600"></text><text fill="#eeeeee" stroke="none" font-family="Arial" font-size="24px" font-style="normal" font-weight="normal" text-decoration="none" x="200" y="630"></text><text fill="#eeeeee" stroke="none" font-family="Arial" font-size="24px" font-style="normal" font-weight="normal" text-decoration="none" x="200" y="660"></text><text fill="#eeeeee" stroke="none" font-family="Arial" font-size="24px" font-style="normal" font-weight="normal" text-decoration="none" x="200" y="690"></text><text fill="#eeeeee" stroke="none" font-family="Arial" font-size="24px" font-style="normal" font-weight="normal" text-decoration="none" x="200" y="720"></text><text fill="#eeeeee" stroke="none" font-family="Arial" font-size="24px" font-style="normal" font-weight="normal" text-decoration="none" x="200" y="750"></text><text fill="#eeeeee" stroke="none" font-family="Arial" font-size="24px" font-style="normal" font-weight="normal" text-decoration="none" x="200" y="780"></text><text fill="#eeeeee" stroke="none" font-family="Arial" font-size="24px" font-style="normal" font-weight="normal" text-decoration="none" x="400" y="0"></text><text fill="#eeeeee" stroke="none" font-family="Arial" font-size="24px" font-style="normal" font-weight="normal" text-decoration="none" x="400" y="30"></text><text fill="#eeeeee" stroke="none" font-family="Arial" font-size="24px" font-style="normal" font-weight="normal" text-decoration="none" x="400" y="60"></text><text fill="#eeeeee" stroke="none" font-family="Arial" font-size="24px" font-style="normal" font-weight="normal" text-decoration="none" x="400" y="90"></text><text fill="#eeeeee" stroke="none" font-family="Arial" font-size="24px" font-style="normal" font-weight="normal" text-decoration="none" x="400" y="120"></text><text fill="#eeeeee" stroke="none" font-family="Arial" font-size="24px" font-style="normal" font-weight="normal" text-decoration="none" x="400" y="150"></text><text fill="#eeeeee" stroke="none" font-family="Arial" font-size="24px" font-style="normal" font-weight="normal" text-decoration="none" x="400" y="180"></text><text fill="#eeeeee" stroke="none" font-family="Arial" font-size="24px" font-style="normal" font-weight="normal" text-decoration="none" x="400" y="210"></text><text fill="#eeeeee" stroke="none" font-family="Arial" font-size="24px" font-style="normal" font-weight="normal" text-decoration="none" x="400" y="240"></text><text fill="#eeeeee" stroke="none" font-family="Arial" font-size="24px" font-style="normal" font-weight="normal" text-decoration="none" x="400" y="270"></text><text fill="#eeeeee" stroke="none" font-family="Arial" font-size="24px" font-style="normal" font-weight="normal" text-decoration="none" x="400" y="300"></text><text fill="#eeeeee" stroke="none" font-family="Arial" font-size="24px" font-style="normal" font-weight="normal" text-decoration="none" x="400" y="330"></text><text fill="#eeeeee" stroke="none" font-family="Arial" font-size="24px" font-style="normal" font-weight="normal" text-decoration="none" x="400" y="360"></text><text fill="#eeeeee" stroke="none" font-family="Arial" font-size="24px" font-style="normal" font-weight="normal" text-decoration="none" x="400" y="390"></text><text fill="#eeeeee" stroke="none" font-family="Arial" font-size="24px" font-style="normal" font-weight="normal" text-decoration="none" x="400" y="420"></text><text fill="#eeeeee" stroke="none" font-family="Arial" font-size="24px" font-style="normal" font-weight="normal" text-decoration="none" x="400" y="450"></text><text fill="#eeeeee" stroke="none" font-family="Arial" font-size="24px" font-style="normal" font-weight="normal" text-decoration="none" x="400" y="480"></text><text fill="#eeeeee" stroke="none" font-family="Arial" font-size="24px" font-style="normal" font-weight="normal" text-decoration="none" x="400" y="510"></text><text fill="#eeeeee" stroke="none" font-family="Arial" font-size="24px" font-style="normal" font-weight="normal" text-decoration="none" x="400" y="540"></text><text fill="#eeeeee" stroke="none" font-family="Arial" font-size="24px" font-style="normal" font-weight="normal" text-decoration="none" x="400" y="570"></text><text fill="#eeeeee" stroke="none" font-family="Arial" font-size="24px" font-style="normal" font-weight="normal" text-decoration="none" x="400" y="600"></text><text fill="#eeeeee" stroke="none" font-family="Arial" font-size="24px" font-style="normal" font-weight="normal" text-decoration="none" x="400" y="630"></text><text fill="#eeeeee" stroke="none" font-family="Arial" font-size="24px" font-style="normal" font-weight="normal" text-decoration="none" x="400" y="660"></text><text fill="#eeeeee" stroke="none" font-family="Arial" font-size="24px" font-style="normal" font-weight="normal" text-decoration="none" x="400" y="690"></text><text fill="#eeeeee" stroke="none" font-family="Arial" font-size="24px" font-style="normal" font-weight="normal" text-decoration="none" x="400" y="720"></text><text fill="#eeeeee" stroke="none" font-family="Arial" font-size="24px" font-style="normal" font-weight="normal" text-decoration="none" x="400" y="750"></text><text fill="#eeeeee" stroke="none" font-family="Arial" font-size="24px" font-style="normal" font-weight="normal" text-decoration="none" x="400" y="780"></text><g transform="translate(-70,-6) scale(1,1)"><path fill="#ffffff" stroke="none" d="M 111.10581818181817 113.84 C 111.10581818181817 104.539523968 118.4457425733818 97 127.5 97 C 136.5542574266182 97 143.89418181818183 104.539523968 143.89418181818183 113.84 C 143.89418181818183 123.14047603200001 136.5542574266182 130.68 127.5 130.68 C 118.4457425733818 130.68 111.10581818181817 123.14047603200001 111.10581818181817 113.84 Z"/></g><g transform="translate(-70,-6) scale(1,1)"><path fill="none" stroke="#000000" d="M 111.10581818181817 113.84 C 111.10581818181817 104.539523968 118.4457425733818 97 127.5 97 C 136.5542574266182 97 143.89418181818183 104.539523968 143.89418181818183 113.84 C 143.89418181818183 123.14047603200001 136.5542574266182 130.68 127.5 130.68 C 118.4457425733818 130.68 111.10581818181817 123.14047603200001 111.10581818181817 113.84 Z" stroke-miterlimit="10"/></g><g transform="translate(-70,-6) scale(1,1)"><path fill="none" stroke="#000000" d="M 127.5 130.68 L 127.5 163.32" stroke-miterlimit="10"/></g><g transform="translate(-70,-6) scale(1,1)"><path fill="none" stroke="#000000" d="M 110.14145454545454 142.92000000000002 L 144.85854545454546 142.92000000000002" stroke-miterlimit="10"/></g><g transform="translate(-70,-6) scale(1,1)"><path fill="none" stroke="#000000" d="M 127.5 163.32 L 103.39090909090908 197" stroke-miterlimit="10"/></g><g transform="translate(-70,-6) scale(1,1)"><path fill="none" stroke="#000000" d="M 127.5 163.32 L 151.60909090909092 197" stroke-miterlimit="10"/></g><g transform="translate(-70,-6) scale(1,1)"><g><path fill="none" stroke="none"/><text fill="#000000" stroke="none" font-family="Arial" font-size="13px" font-style="normal" font-weight="bold" text-decoration="none" x="112.922607421875" y="217.5">Гість</text></g></g><g transform="translate(-70,-6) scale(1,1)"><path fill="#ffffff" stroke="none" d="M 110.15927272727272 387.37 C 110.15927272727272 377.224528224 118.14683750632727 369 128 369 C 137.85316249367273 369 145.8407272727273 377.224528224 145.8407272727273 387.37 C 145.8407272727273 397.515471776 137.85316249367273 405.74 128 405.74 C 118.14683750632727 405.74 110.15927272727272 397.515471776 110.15927272727272 387.37 Z"/></g><g transform="translate(-70,-6) scale(1,1)"><path fill="none" stroke="#000000" d="M 110.15927272727272 387.37 C 110.15927272727272 377.224528224 118.14683750632727 369 128 369 C 137.85316249367273 369 145.8407272727273 377.224528224 145.8407272727273 387.37 C 145.8407272727273 397.515471776 137.85316249367273 405.74 128 405.74 C 118.14683750632727 405.74 110.15927272727272 397.515471776 110.15927272727272 387.37 Z" stroke-miterlimit="10"/></g><g transform="translate(-70,-6) scale(1,1)"><path fill="none" stroke="#000000" d="M 128 405.74 L 128 441.26" stroke-miterlimit="10"/></g><g transform="translate(-70,-6) scale(1,1)"><path fill="none" stroke="#000000" d="M 109.10981818181817 419.06 L 146.89018181818182 419.06" stroke-miterlimit="10"/></g><g transform="translate(-70,-6) scale(1,1)"><path fill="none" stroke="#000000" d="M 128 441.26 L 101.76363636363635 478" stroke-miterlimit="10"/></g><g transform="translate(-70,-6) scale(1,1)"><path fill="none" stroke="#000000" d="M 128 441.26 L 154.23636363636365 478" stroke-miterlimit="10"/></g><g transform="translate(-70,-6) scale(1,1)"><g><path fill="none" stroke="none"/><text fill="#000000" stroke="none" font-family="Arial" font-size="13px" font-style="normal" font-weight="bold" text-decoration="none" x="109.093505859375" y="498.5">Клієнт</text></g></g><g transform="translate(-70,-6) scale(1,1)"><path fill="#ffffff" stroke="none" d="M 569.2478957741478 307.37 C 569.2478957741478 297.224528224 577.2354605532023 289 587.088623046875 289 C 596.9417855405477 289 604.9293503196022 297.224528224 604.9293503196022 307.37 C 604.9293503196022 317.515471776 596.9417855405477 325.74 587.088623046875 325.74 C 577.2354605532023 325.74 569.2478957741478 317.515471776 569.2478957741478 307.37 Z"/></g><g transform="translate(-70,-6) scale(1,1)"><path fill="none" stroke="#000000" d="M 569.2478957741478 307.37 C 569.2478957741478 297.224528224 577.2354605532023 289 587.088623046875 289 C 596.9417855405477 289 604.9293503196022 297.224528224 604.9293503196022 307.37 C 604.9293503196022 317.515471776 596.9417855405477 325.74 587.088623046875 325.74 C 577.2354605532023 325.74 569.2478957741478 317.515471776 569.2478957741478 307.37 Z" stroke-miterlimit="10"/></g><g transform="translate(-70,-6) scale(1,1)"><path fill="none" stroke="#000000" d="M 587.088623046875 325.74 L 587.088623046875 361.26" stroke-miterlimit="10"/></g><g transform="translate(-70,-6) scale(1,1)"><path fill="none" stroke="#000000" d="M 568.1984412286931 339.06 L 605.9788048650569 339.06" stroke-miterlimit="10"/></g><g transform="translate(-70,-6) scale(1,1)"><path fill="none" stroke="#000000" d="M 587.088623046875 361.26 L 560.8522594105114 398" stroke-miterlimit="10"/></g><g transform="translate(-70,-6) scale(1,1)"><path fill="none" stroke="#000000" d="M 587.088623046875 361.26 L 613.3249866832386 398" stroke-miterlimit="10"/></g><g transform="translate(-70,-6) scale(1,1)"><g><path fill="none" stroke="none"/><text fill="#000000" stroke="none" font-family="Arial" font-size="13px" font-style="normal" font-weight="bold" text-decoration="none" x="544.565673828125" y="418.5">Адміністратор</text></g></g><g transform="translate(-70,-6) scale(1,1)"><path fill="#C0C0C0" stroke="none" d="M 286 59 C 286 39.1177472 321.36950079999997 23 365 23 C 408.63049920000003 23 444 39.1177472 444 59 C 444 78.8822528 408.63049920000003 95 365 95 C 321.36950079999997 95 286 78.8822528 286 59 Z" opacity="0.2"/></g><g transform="translate(-70,-6) scale(1,1)"><path fill="#ffffff" stroke="none" d="M 279 52 C 279 32.1177472 314.36950079999997 16 358 16 C 401.63049920000003 16 437 32.1177472 437 52 C 437 71.8822528 401.63049920000003 88 358 88 C 314.36950079999997 88 279 71.8822528 279 52 Z"/></g><g transform="translate(-70,-6) scale(1,1)"><path fill="none" stroke="#000000" d="M 279 52 C 279 32.1177472 314.36950079999997 16 358 16 C 401.63049920000003 16 437 32.1177472 437 52 C 437 71.8822528 401.63049920000003 88 358 88 C 314.36950079999997 88 279 71.8822528 279 52 Z" stroke-miterlimit="10"/></g><g transform="translate(-70,-6) scale(1,1)"><g><path fill="none" stroke="none"/><text fill="#000000" stroke="none" font-family="Arial" font-size="13px" font-style="normal" font-weight="bold" text-decoration="none" x="324.874755859375" y="59">Реєстрація</text></g></g><g transform="translate(-70,-6) scale(1,1)"><path fill="none" stroke="#000000" d="M 176 136 L 278 89" stroke-miterlimit="10"/></g><g transform="translate(-70,-6) scale(1,1)"><path fill="none" stroke="#000000" d="M 176 176 L 278 212" stroke-miterlimit="10"/></g><g transform="translate(-70,-6) scale(1,1)"><path fill="none" stroke="#000000" d="M 176 193 L 311 287" stroke-miterlimit="10"/></g><g transform="translate(-70,-6) scale(1,1)"><path fill="none" stroke="#000000" d="M 176 211 L 323 367" stroke-miterlimit="10"/></g><g transform="translate(-70,-6) scale(1,1)"><path fill="none" stroke="#000000" d="M 169 385 L 328 185" stroke-miterlimit="10"/></g><g transform="translate(-70,-6) scale(1,1)"><path fill="none" stroke="#000000" d="M 169 401 L 319 273" stroke-miterlimit="10"/></g><g transform="translate(-70,-6) scale(1,1)"><path fill="none" stroke="#000000" d="M 169 415 L 293 353" stroke-miterlimit="10"/></g><g transform="translate(-70,-6) scale(1,1)"><path fill="none" stroke="#000000" d="M 169 430 L 278 415" stroke-miterlimit="10"/></g><g transform="translate(-70,-6) scale(1,1)"><path fill="none" stroke="#000000" d="M 535 387 L 434 447" stroke-miterlimit="10"/></g><g transform="translate(-70,-6) scale(1,1)"><path fill="none" stroke="#000000" d="M 539 425 L 384 647" stroke-miterlimit="10"/></g><g transform="translate(-70,-6) scale(1,1)"><path fill="none" stroke="#000000" d="M 547 425 L 375 727" stroke-miterlimit="10"/></g><g transform="translate(-70,-6) scale(1,1)"><path fill="none" stroke="#000000" d="M 535 367 L 438 387" stroke-miterlimit="10"/></g><g transform="translate(-70,-6) scale(1,1)"><path fill="none" stroke="#000000" d="M 535 348 L 438 333" stroke-miterlimit="10"/></g><g transform="translate(-70,-6) scale(1,1)"><path fill="none" stroke="#000000" d="M 535 330 L 423 273" stroke-miterlimit="10"/></g><g transform="translate(-70,-6) scale(1,1)"><path fill="none" stroke="#000000" d="M 535 309 L 399 185" stroke-miterlimit="10"/></g><g transform="translate(-70,-6) scale(1,1)"><path fill="#C0C0C0" stroke="none" d="M 286 763 C 286 747.5360256 321.36950079999997 735 365 735 C 408.63049920000003 735 444 747.5360256 444 763 C 444 778.4639744 408.63049920000003 791 365 791 C 321.36950079999997 791 286 778.4639744 286 763 Z" opacity="0.2"/></g><g transform="translate(-70,-6) scale(1,1)"><path fill="#ffffff" stroke="none" d="M 279 756 C 279 740.5360256 314.36950079999997 728 358 728 C 401.63049920000003 728 437 740.5360256 437 756 C 437 771.4639744 401.63049920000003 784 358 784 C 314.36950079999997 784 279 771.4639744 279 756 Z"/></g><g transform="translate(-70,-6) scale(1,1)"><path fill="none" stroke="#000000" d="M 279 756 C 279 740.5360256 314.36950079999997 728 358 728 C 401.63049920000003 728 437 740.5360256 437 756 C 437 771.4639744 401.63049920000003 784 358 784 C 314.36950079999997 784 279 771.4639744 279 756 Z" stroke-miterlimit="10"/></g><g transform="translate(-70,-6) scale(1,1)"><g><path fill="none" stroke="none"/><text fill="#000000" stroke="none" font-family="Arial" font-size="13px" font-style="normal" font-weight="bold" text-decoration="none" x="319.75537109375" y="756.5">Редагування</text><text fill="#000000" stroke="none" font-family="Arial" font-size="13px" font-style="normal" font-weight="bold" text-decoration="none" x="321.22802734375" y="769.5">списку лаків</text></g></g><g transform="translate(-70,-6) scale(1,1)"><path fill="#C0C0C0" stroke="none" d="M 286 691 C 286 671.1177472 321.36950079999997 655 365 655 C 408.63049920000003 655 444 671.1177472 444 691 C 444 710.8822528 408.63049920000003 727 365 727 C 321.36950079999997 727 286 710.8822528 286 691 Z" opacity="0.2"/></g><g transform="translate(-70,-6) scale(1,1)"><path fill="#ffffff" stroke="none" d="M 279 684 C 279 664.1177472 314.36950079999997 648 358 648 C 401.63049920000003 648 437 664.1177472 437 684 C 437 703.8822528 401.63049920000003 720 358 720 C 314.36950079999997 720 279 703.8822528 279 684 Z"/></g><g transform="translate(-70,-6) scale(1,1)"><path fill="none" stroke="#000000" d="M 279 684 C 279 664.1177472 314.36950079999997 648 358 648 C 401.63049920000003 648 437 664.1177472 437 684 C 437 703.8822528 401.63049920000003 720 358 720 C 314.36950079999997 720 279 703.8822528 279 684 Z" stroke-miterlimit="10"/></g><g transform="translate(-70,-6) scale(1,1)"><g><path fill="none" stroke="none"/><text fill="#000000" stroke="none" font-family="Arial" font-size="13px" font-style="normal" font-weight="bold" text-decoration="none" x="319.75537109375" y="684.5">Редагування</text><text fill="#000000" stroke="none" font-family="Arial" font-size="13px" font-style="normal" font-weight="bold" text-decoration="none" x="313.144287109375" y="697.5">списку брендів</text></g></g><g transform="translate(-70,-6) scale(1,1)"><path fill="#C0C0C0" stroke="none" d="M 286 499.5 C 286 474.9233264 321.36950079999997 455 365 455 C 408.63049920000003 455 444 474.9233264 444 499.5 C 444 524.0766736 408.63049920000003 544 365 544 C 321.36950079999997 544 286 524.0766736 286 499.5 Z" opacity="0.2"/></g><g transform="translate(-70,-6) scale(1,1)"><path fill="#ffffff" stroke="none" d="M 279 492.5 C 279 467.9233264 314.36950079999997 448 358 448 C 401.63049920000003 448 437 467.9233264 437 492.5 C 437 517.0766736 401.63049920000003 537 358 537 C 314.36950079999997 537 279 517.0766736 279 492.5 Z"/></g><g transform="translate(-70,-6) scale(1,1)"><path fill="none" stroke="#000000" d="M 279 492.5 C 279 467.9233264 314.36950079999997 448 358 448 C 401.63049920000003 448 437 467.9233264 437 492.5 C 437 517.0766736 401.63049920000003 537 358 537 C 314.36950079999997 537 279 517.0766736 279 492.5 Z" stroke-miterlimit="10"/></g><g transform="translate(-70,-6) scale(1,1)"><g><path fill="none" stroke="none"/><text fill="#000000" stroke="none" font-family="Arial" font-size="13px" font-style="normal" font-weight="bold" text-decoration="none" x="319.75537109375" y="480">Редагування</text><text fill="#000000" stroke="none" font-family="Arial" font-size="13px" font-style="normal" font-weight="bold" text-decoration="none" x="338.1826171875" y="493">списку</text><text fill="#000000" stroke="none" font-family="Arial" font-size="13px" font-style="normal" font-weight="bold" text-decoration="none" x="324.916015625" y="506">улюблених</text><text fill="#000000" stroke="none" font-family="Arial" font-size="13px" font-style="normal" font-weight="bold" text-decoration="none" x="326.176025390625" y="519">матеріалів</text></g></g><g transform="translate(-70,-6) scale(1,1)"><path fill="#C0C0C0" stroke="none" d="M 286 411 C 286 391.1177472 321.36950079999997 375 365 375 C 408.63049920000003 375 444 391.1177472 444 411 C 444 430.8822528 408.63049920000003 447 365 447 C 321.36950079999997 447 286 430.8822528 286 411 Z" opacity="0.2"/></g><g transform="translate(-70,-6) scale(1,1)"><path fill="#ffffff" stroke="none" d="M 279 404 C 279 384.1177472 314.36950079999997 368 358 368 C 401.63049920000003 368 437 384.1177472 437 404 C 437 423.8822528 401.63049920000003 440 358 440 C 314.36950079999997 440 279 423.8822528 279 404 Z"/></g><g transform="translate(-70,-6) scale(1,1)"><path fill="none" stroke="#000000" d="M 279 404 C 279 384.1177472 314.36950079999997 368 358 368 C 401.63049920000003 368 437 384.1177472 437 404 C 437 423.8822528 401.63049920000003 440 358 440 C 314.36950079999997 440 279 423.8822528 279 404 Z" stroke-miterlimit="10"/></g><g transform="translate(-70,-6) scale(1,1)"><g><path fill="none" stroke="none"/><text fill="#000000" stroke="none" font-family="Arial" font-size="13px" font-style="normal" font-weight="bold" text-decoration="none" x="313.049072265625" y="404.5">Пошук лаків за</text><text fill="#000000" stroke="none" font-family="Arial" font-size="13px" font-style="normal" font-weight="bold" text-decoration="none" x="331.5810546875" y="417.5">брендом</text></g></g><g transform="translate(-70,-6) scale(1,1)"><path fill="#C0C0C0" stroke="none" d="M 286 327 C 286 309.3268864 321.36950079999997 295 365 295 C 408.63049920000003 295 444 309.3268864 444 327 C 444 344.6731136 408.63049920000003 359 365 359 C 321.36950079999997 359 286 344.6731136 286 327 Z" opacity="0.2"/></g><g transform="translate(-70,-6) scale(1,1)"><path fill="#ffffff" stroke="none" d="M 279 320 C 279 302.3268864 314.36950079999997 288 358 288 C 401.63049920000003 288 437 302.3268864 437 320 C 437 337.6731136 401.63049920000003 352 358 352 C 314.36950079999997 352 279 337.6731136 279 320 Z"/></g><g transform="translate(-70,-6) scale(1,1)"><path fill="none" stroke="#000000" d="M 279 320 C 279 302.3268864 314.36950079999997 288 358 288 C 401.63049920000003 288 437 302.3268864 437 320 C 437 337.6731136 401.63049920000003 352 358 352 C 314.36950079999997 352 279 337.6731136 279 320 Z" stroke-miterlimit="10"/></g><g transform="translate(-70,-6) scale(1,1)"><g><path fill="none" stroke="none"/><text fill="#000000" stroke="none" font-family="Arial" font-size="13px" font-style="normal" font-weight="bold" text-decoration="none" x="316.019775390625" y="320.5">Перегляд всіх</text><text fill="#000000" stroke="none" font-family="Arial" font-size="13px" font-style="normal" font-weight="bold" text-decoration="none" x="342.851318359375" y="333.5">лаків</text></g></g><g transform="translate(-70,-6) scale(1,1)"><path fill="#C0C0C0" stroke="none" d="M 286 247 C 286 229.3268864 321.36950079999997 215 365 215 C 408.63049920000003 215 444 229.3268864 444 247 C 444 264.6731136 408.63049920000003 279 365 279 C 321.36950079999997 279 286 264.6731136 286 247 Z" opacity="0.2"/></g><g transform="translate(-70,-6) scale(1,1)"><path fill="#ffffff" stroke="none" d="M 279 240 C 279 222.3268864 314.36950079999997 208 358 208 C 401.63049920000003 208 437 222.3268864 437 240 C 437 257.6731136 401.63049920000003 272 358 272 C 314.36950079999997 272 279 257.6731136 279 240 Z"/></g><g transform="translate(-70,-6) scale(1,1)"><path fill="none" stroke="#000000" d="M 279 240 C 279 222.3268864 314.36950079999997 208 358 208 C 401.63049920000003 208 437 222.3268864 437 240 C 437 257.6731136 401.63049920000003 272 358 272 C 314.36950079999997 272 279 257.6731136 279 240 Z" stroke-miterlimit="10"/></g><g transform="translate(-70,-6) scale(1,1)"><g><path fill="none" stroke="none"/><text fill="#000000" stroke="none" font-family="Arial" font-size="13px" font-style="normal" font-weight="bold" text-decoration="none" x="313.049072265625" y="240.5">Пошук лаків за</text><text fill="#000000" stroke="none" font-family="Arial" font-size="13px" font-style="normal" font-weight="bold" text-decoration="none" x="317.39404296875" y="253.5">зображенням</text></g></g><g transform="translate(-70,-6) scale(1,1)"><path fill="#C0C0C0" stroke="none" d="M 286 155 C 286 135.1177472 321.36950079999997 119 365 119 C 408.63049920000003 119 444 135.1177472 444 155 C 444 174.8822528 408.63049920000003 191 365 191 C 321.36950079999997 191 286 174.8822528 286 155 Z" opacity="0.2"/></g><g transform="translate(-70,-6) scale(1,1)"><path fill="#ffffff" stroke="none" d="M 279 148 C 279 128.1177472 314.36950079999997 112 358 112 C 401.63049920000003 112 437 128.1177472 437 148 C 437 167.8822528 401.63049920000003 184 358 184 C 314.36950079999997 184 279 167.8822528 279 148 Z"/></g><g transform="translate(-70,-6) scale(1,1)"><path fill="none" stroke="#000000" d="M 279 148 C 279 128.1177472 314.36950079999997 112 358 112 C 401.63049920000003 112 437 128.1177472 437 148 C 437 167.8822528 401.63049920000003 184 358 184 C 314.36950079999997 184 279 167.8822528 279 148 Z" stroke-miterlimit="10"/></g><g transform="translate(-70,-6) scale(1,1)"><g><path fill="none" stroke="none"/><text fill="#000000" stroke="none" font-family="Arial" font-size="13px" font-style="normal" font-weight="bold" text-decoration="none" x="313.744140625" y="155">Вхід в систему</text></g></g><g transform="translate(-70,-6) scale(1,1)"><path fill="#C0C0C0" stroke="none" d="M 287 599 C 287 576.908608 324.6080768 559 371 559 C 417.3919232 559 455 576.908608 455 599 C 455 621.091392 417.3919232 639 371 639 C 324.6080768 639 287 621.091392 287 599 Z" opacity="0.2"/></g><g transform="translate(-70,-6) scale(1,1)"><path fill="#ffffff" stroke="none" d="M 280 592 C 280 569.908608 317.6080768 552 364 552 C 410.3919232 552 448 569.908608 448 592 C 448 614.091392 410.3919232 632 364 632 C 317.6080768 632 280 614.091392 280 592 Z"/></g><g transform="translate(-70,-6) scale(1,1)"><path fill="none" stroke="#000000" d="M 280 592 C 280 569.908608 317.6080768 552 364 552 C 410.3919232 552 448 569.908608 448 592 C 448 614.091392 410.3919232 632 364 632 C 317.6080768 632 280 614.091392 280 592 Z" stroke-miterlimit="10"/></g><g transform="translate(-70,-6) scale(1,1)"><g><path fill="none" stroke="none"/><text fill="#000000" stroke="none" font-family="Arial" font-size="13px" font-style="normal" font-weight="bold" text-decoration="none" x="325.75537109375" y="586">Редагування</text><text fill="#000000" stroke="none" font-family="Arial" font-size="13px" font-style="normal" font-weight="bold" text-decoration="none" x="344.1826171875" y="599">списку</text><text fill="#000000" stroke="none" font-family="Arial" font-size="13px" font-style="normal" font-weight="bold" text-decoration="none" x="317.30029296875" y="612">адміністраторів</text></g></g><g transform="translate(-70,-6) scale(1,1)"><path fill="none" stroke="#000000" d="M 535 411 L 403 551" stroke-miterlimit="10"/></g><g transform="translate(-70,-6) scale(1,1)"><path fill="none" stroke="#000000" d="M 169 446 L 278 473" stroke-miterlimit="10"/></g></g></svg>