<svg version="1.1" xmlns="http://www.w3.org/2000/svg" xmlns:xlink="http://www.w3.org/1999/xlink" width="562.716796875" height="636"><defs/><g><text fill="#eeeeee" stroke="none" font-family="Arial" font-size="24px" font-style="normal" font-weight="normal" text-decoration="none" x="0" y="0"></text><text fill="#eeeeee" stroke="none" font-family="Arial" font-size="24px" font-style="normal" font-weight="normal" text-decoration="none" x="0" y="30"></text><text fill="#eeeeee" stroke="none" font-family="Arial" font-size="24px" font-style="normal" font-weight="normal" text-decoration="none" x="0" y="60"></text><text fill="#eeeeee" stroke="none" font-family="Arial" font-size="24px" font-style="normal" font-weight="normal" text-decoration="none" x="0" y="90"></text><text fill="#eeeeee" stroke="none" font-family="Arial" font-size="24px" font-style="normal" font-weight="normal" text-decoration="none" x="0" y="120"></text><text fill="#eeeeee" stroke="none" font-family="Arial" font-size="24px" font-style="normal" font-weight="normal" text-decoration="none" x="0" y="150"></text><text fill="#eeeeee" stroke="none" font-family="Arial" font-size="24px" font-style="normal" font-weight="normal" text-decoration="none" x="0" y="180"></text><text fill="#eeeeee" stroke="none" font-family="Arial" font-size="24px" font-style="normal" font-weight="normal" text-decoration="none" x="0" y="210"></text><text fill="#eeeeee" stroke="none" font-family="Arial" font-size="24px" font-style="normal" font-weight="normal" text-decoration="none" x="0" y="240"></text><text fill="#eeeeee" stroke="none" font-family="Arial" font-size="24px" font-style="normal" font-weight="normal" text-decoration="none" x="0" y="270"></text><text fill="#eeeeee" stroke="none" font-family="Arial" font-size="24px" font-style="normal" font-weight="normal" text-decoration="none" x="0" y="300"></text><text fill="#eeeeee" stroke="none" font-family="Arial" font-size="24px" font-style="normal" font-weight="normal" text-decoration="none" x="0" y="330"></text><text fill="#eeeeee" stroke="none" font-family="Arial" font-size="24px" font-style="normal" font-weight="normal" text-decoration="none" x="0" y="360"></text><text fill="#eeeeee" stroke="none" font-family="Arial" font-size="24px" font-style="normal" font-weight="normal" text-decoration="none" x="0" y="390"></text><text fill="#eeeeee" stroke="none" font-family="Arial" font-size="24px" font-style="normal" font-weight="normal" text-decoration="none" x="0" y="420"></text><text fill="#eeeeee" stroke="none" font-family="Arial" font-size="24px" font-style="normal" font-weight="normal" text-decoration="none" x="0" y="450"></text><text fill="#eeeeee" stroke="none" font-family="Arial" font-size="24px" font-style="normal" font-weight="normal" text-decoration="none" x="0" y="480"></text><text fill="#eeeeee" stroke="none" font-family="Arial" font-size="24px" font-style="normal" font-weight="normal" text-decoration="none" x="0" y="510"></text><text fill="#eeeeee" stroke="none" font-family="Arial" font-size="24px" font-style="normal" font-weight="normal" text-decoration="none" x="0" y="540"></text><text fill="#eeeeee" stroke="none" font-family="Arial" font-size="24px" font-style="normal" font-weight="normal" text-decoration="none" x="0" y="570"></text><text fill="#eeeeee" stroke="none" font-family="Arial" font-size="24px" font-style="normal" font-weight="normal" text-decoration="none" x="0" y="600"></text><text fill="#eeeeee" stroke="none" font-family="Arial" font-size="24px" font-style="normal" font-weight="normal" text-decoration="none" x="0" y="630"></text><text fill="#eeeeee" stroke="none" font-family="Arial" font-size="24px" font-style="normal" font-weight="normal" text-decoration="none" x="200" y="0"></text><text fill="#eeeeee" stroke="none" font-family="Arial" font-size="24px" font-style="normal" font-weight="normal" text-decoration="none" x="200" y="30"></text><text fill="#eeeeee" stroke="none" font-family="Arial" font-size="24px" font-style="normal" font-weight="normal" text-decoration="none" x="200" y="60"></text><text fill="#eeeeee" stroke="none" font-family="Arial" font-size="24px" font-style="normal" font-weight="normal" text-decoration="none" x="200" y="90"></text><text fill="#eeeeee" stroke="none" font-family="Arial" font-size="24px" font-style="normal" font-weight="normal" text-decoration="none" x="200" y="120"></text><text fill="#eeeeee" stroke="none" font-family="Arial" font-size="24px" font-style="normal" font-weight="normal" text-decoration="none" x="200" y="150"></text><text fill="#eeeeee" stroke="none" font-family="Arial" font-size="24px" font-style="normal" font-weight="normal" text-decoration="none" x="200" y="180"></text><text fill="#eeeeee" stroke="none" font-family="Arial" font-size="24px" font-style="normal" font-weight="normal" text-decoration="none" x="200" y="210"></text><text fill="#eeeeee" stroke="none" font-family="Arial" font-size="24px" font-style="normal" font-weight="normal" text-decoration="none" x="200" y="240"></text><text fill="#eeeeee" stroke="none" font-family="Arial" font-size="24px" font-style="normal" font-weight="normal" text-decoration="none" x="200" y="270"></text><text fill="#eeeeee" stroke="none" font-family="Arial" font-size="24px" font-style="normal" font-weight="normal" text-decoration="none" x="200" y="300"></text><text fill="#eeeeee" stroke="none" font-family="Arial" font-size="24px" font-style="normal" font-weight="normal" text-decoration="none" x="200" y="330"></text><text fill="#eeeeee" stroke="none" font-family="Arial" font-size="24px" font-style="normal" font-weight="normal" text-decoration="none" x="200" y="360"></text><text fill="#eeeeee" stroke="none" font-family="Arial" font-size="24px" font-style="normal" font-weight="normal" text-decoration="none" x="200" y="390"></text><text fill="#eeeeee" stroke="none" font-family="Arial" font-size="24px" font-style="normal" font-weight="normal" text-decoration="none" x="200" y="420"></text><text fill="#eeeeee" stroke="none" font-family="Arial" font-size="24px" font-style="normal" font-weight="normal" text-decoration="none" x="200" y="450"></text><text fill="#eeeeee" stroke="none" font-family="Arial" font-size="24px" font-style="normal" font-weight="normal" text-decoration="none" x="200" y="480"></text><text fill="#eeeeee" stroke="none" font-family="Arial" font-size="24px" font-style="normal" font-weight="normal" text-decoration="none" x="200" y="510"></text><text fill="#eeeeee" stroke="none" font-family="Arial" font-size="24px" font-style="normal" font-weight="normal" text-decoration="none" x="200" y="540"></text><text fill="#eeeeee" stroke="none" font-family="Arial" font-size="24px" font-style="normal" font-weight="normal" text-decoration="none" x="200" y="570"></text><text fill="#eeeeee" stroke="none" font-family="Arial" font-size="24px" font-style="normal" font-weight="normal" text-decoration="none" x="200" y="600"></text><text fill="#eeeeee" stroke="none" font-family="Arial" font-size="24px" font-style="normal" font-weight="normal" text-decoration="none" x="200" y="630"></text><text fill="#eeeeee" stroke="none" font-family="Arial" font-size="24px" font-style="normal" font-weight="normal" text-decoration="none" x="400" y="0"></text><text fill="#eeeeee" stroke="none" font-family="Arial" font-size="24px" font-style="normal" font-weight="normal" text-decoration="none" x="400" y="30"></text><text fill="#eeeeee" stroke="none" font-family="Arial" font-size="24px" font-style="normal" font-weight="normal" text-decoration="none" x="400" y="60"></text><text fill="#eeeeee" stroke="none" font-family="Arial" font-size="24px" font-style="normal" font-weight="normal" text-decoration="none" x="400" y="90"></text><text fill="#eeeeee" stroke="none" font-family="Arial" font-size="24px" font-style="normal" font-weight="normal" text-decoration="none" x="400" y="120"></text><text fill="#eeeeee" stroke="none" font-family="Arial" font-size="24px" font-style="normal" font-weight="normal" text-decoration="none" x="400" y="150"></text><text fill="#eeeeee" stroke="none" font-family="Arial" font-size="24px" font-style="normal" font-weight="normal" text-decoration="none" x="400" y="180"></text><text fill="#eeeeee" stroke="none" font-family="Arial" font-size="24px" font-style="normal" font-weight="normal" text-decoration="none" x="400" y="210"></text><text fill="#eeeeee" stroke="none" font-family="Arial" font-size="24px" font-style="normal" font-weight="normal" text-decoration="none" x="400" y="240"></text><text fill="#eeeeee" stroke="none" font-family="Arial" font-size="24px" font-style="normal" font-weight="normal" text-decoration="none" x="400" y="270"></text><text fill="#eeeeee" stroke="none" font-family="Arial" font-size="24px" font-style="normal" font-weight="normal" text-decoration="none" x="400" y="300"></text><text fill="#eeeeee" stroke="none" font-family="Arial" font-size="24px" font-style="normal" font-weight="normal" text-decoration="none" x="400" y="330"></text><text fill="#eeeeee" stroke="none" font-family="Arial" font-size="24px" font-style="normal" font-weight="normal" text-decoration="none" x="400" y="360"></text><text fill="#eeeeee" stroke="none" font-family="Arial" font-size="24px" font-style="normal" font-weight="normal" text-decoration="none" x="400" y="390"></text><text fill="#eeeeee" stroke="none" font-family="Arial" font-size="24px" font-style="normal" font-weight="normal" text-decoration="none" x="400" y="420"></text><text fill="#eeeeee" stroke="none" font-family="Arial" font-size="24px" font-style="normal" font-weight="normal" text-decoration="none" x="400" y="450"></text><text fill="#eeeeee" stroke="none" font-family="Arial" font-size="24px" font-style="normal" font-weight="normal" text-decoration="none" x="400" y="480"></text><text fill="#eeeeee" stroke="none" font-family="Arial" font-size="24px" font-style="normal" font-weight="normal" text-decoration="none" x="400" y="510"></text><text fill="#eeeeee" stroke="none" font-family="Arial" font-size="24px" font-style="normal" font-weight="normal" text-decoration="none" x="400" y="540"></text><text fill="#eeeeee" stroke="none" font-family="Arial" font-size="24px" font-style="normal" font-weight="normal" text-decoration="none" x="400" y="570"></text><text fill="#eeeeee" stroke="none" font-family="Arial" font-size="24px" font-style="normal" font-weight="normal" text-decoration="none" x="400" y="600"></text><text fill="#eeeeee" stroke="none" font-family="Arial" font-size="24px" font-style="normal" font-weight="normal" text-decoration="none" x="400" y="630"></text><g transform="translate(-45,-62) scale(1,1)"><path fill="#ffffff" stroke="none" d="M 248.5 656 L 398.5 656 Q 415 656 415 672.5 L 415 671.5 Q 415 688 398.5 688 L 248.5 688 Q 232 688 232 671.5 L 232 672.5 Q 232 656 248.5 656 Z"/></g><g transform="translate(-45,-62) scale(1,1)"><path fill="none" stroke="#000000" d="M 248.5 656 L 398.5 656 Q 415 656 415 672.5 L 415 671.5 Q 415 688 398.5 688 L 248.5 688 Q 232 688 232 671.5 L 232 672.5 Q 232 656 248.5 656 Z" stroke-miterlimit="10"/></g><g transform="translate(-45,-62) scale(1,1)"><g><path fill="none" stroke="none"/><text fill="#000000" stroke="none" font-family="Arial" font-size="13px" font-style="normal" font-weight="normal" text-decoration="none" x="307.046875" y="678.5">Вихід</text></g></g><g transform="translate(-45,-62) scale(1,1)"><path fill="#ffffff" stroke="none" d="M 256 252 L 277 224 L 362 224 L 383 252 L 362 280 L 277 280 L 256 252"/></g><g transform="translate(-45,-62) scale(1,1)"><path fill="none" stroke="#000000" d="M 256 252 L 277 224 L 362 224 L 383 252 L 362 280 L 277 280 L 256 252 L 256 252" stroke-miterlimit="10"/></g><g transform="translate(-45,-62) scale(1,1)"><g><path fill="none" stroke="none"/><text fill="#000000" stroke="none" font-family="Arial" font-size="13px" font-style="normal" font-weight="normal" text-decoration="none" x="304.148193359375" y="246.5">i &gt; N;</text></g></g><g transform="translate(-45,-62) scale(1,1)"><g><path fill="none" stroke="none"/><text fill="#000000" stroke="none" font-family="Arial" font-size="13px" font-style="normal" font-weight="normal" text-decoration="none" x="301" y="266">i = i + 1</text></g></g><g transform="translate(-45,-62) scale(1,1)"><rect fill="#ffffff" stroke="none" x="232" y="312" width="167" height="64"/></g><g transform="translate(-45,-62) scale(1,1)"><path fill="none" stroke="#000000" d="M 232 312 L 399 312 L 399 376 L 232 376 L 232 312 Z Z" stroke-miterlimit="10"/></g><g transform="translate(-45,-62) scale(1,1)"><g><path fill="none" stroke="none"/><text fill="#000000" stroke="none" font-family="Arial" font-size="13px" font-style="normal" font-weight="normal" text-decoration="none" x="258.539306640625" y="334.5">Пошук відстані між</text><text fill="#000000" stroke="none" font-family="Arial" font-size="13px" font-style="normal" font-weight="normal" text-decoration="none" x="248.04345703125" y="347.5">поточним кольором та</text><text fill="#000000" stroke="none" font-family="Arial" font-size="13px" font-style="normal" font-weight="normal" text-decoration="none" x="260.335693359375" y="360.5">кольором-зразком</text></g></g><g transform="translate(-45,-62) scale(1,1)"><path fill="#ffffff" stroke="none" d="M 265 136 L 399 136 L 373 181 L 239 181 L 265 136"/></g><g transform="translate(-45,-62) scale(1,1)"><path fill="none" stroke="#000000" d="M 265 136 L 399 136 L 373 181 L 239 181 L 265 136 L 265 136" stroke-miterlimit="10"/></g><g transform="translate(-45,-62) scale(1,1)"><g><path fill="none" stroke="none"/><text fill="#000000" stroke="none" font-family="Arial" font-size="13px" font-style="normal" font-weight="normal" text-decoration="none" x="275.80419921875" y="158.5">Колір - зразок,</text><text fill="#000000" stroke="none" font-family="Arial" font-size="13px" font-style="normal" font-weight="normal" text-decoration="none" x="283.735595703125" y="171.5">Всі кольори</text></g></g><g transform="translate(-45,-62) scale(1,1)"><rect fill="#ffffff" stroke="none" x="232" y="408" width="167" height="47"/></g><g transform="translate(-45,-62) scale(1,1)"><path fill="none" stroke="#000000" d="M 232 408 L 399 408 L 399 455 L 232 455 L 232 408 Z Z" stroke-miterlimit="10"/></g><g transform="translate(-45,-62) scale(1,1)"><g><path fill="none" stroke="none"/><text fill="#000000" stroke="none" font-family="Arial" font-size="13px" font-style="normal" font-weight="normal" text-decoration="none" x="247.938720703125" y="430.5">Додавання відстані до</text><text fill="#000000" stroke="none" font-family="Arial" font-size="13px" font-style="normal" font-weight="normal" text-decoration="none" x="259.916748046875" y="443.5">поточного кольору</text></g></g><g transform="translate(-45,-62) scale(1,1)"><path fill="#ffffff" stroke="none" d="M 248.5 72 L 398.5 72 Q 415 72 415 88.5 L 415 87.5 Q 415 104 398.5 104 L 248.5 104 Q 232 104 232 87.5 L 232 88.5 Q 232 72 248.5 72 Z"/></g><g transform="translate(-45,-62) scale(1,1)"><path fill="none" stroke="#000000" d="M 248.5 72 L 398.5 72 Q 415 72 415 88.5 L 415 87.5 Q 415 104 398.5 104 L 248.5 104 Q 232 104 232 87.5 L 232 88.5 Q 232 72 248.5 72 Z" stroke-miterlimit="10"/></g><g transform="translate(-45,-62) scale(1,1)"><g><path fill="none" stroke="none"/><text fill="#000000" stroke="none" font-family="Arial" font-size="13px" font-style="normal" font-weight="normal" text-decoration="none" x="310.750732421875" y="94.5">Вхід</text></g></g><g transform="translate(-45,-62) scale(1,1)"><rect fill="#ffffff" stroke="none" x="232" y="496" width="167" height="58"/></g><g transform="translate(-45,-62) scale(1,1)"><path fill="none" stroke="#000000" d="M 232 496 L 399 496 L 399 554 L 232 554 L 232 496 Z Z" stroke-miterlimit="10"/></g><g transform="translate(-45,-62) scale(1,1)"><g><path fill="none" stroke="none"/><text fill="#000000" stroke="none" font-family="Arial" font-size="13px" font-style="normal" font-weight="normal" text-decoration="none" x="266.594482421875" y="518.5">Сортування всіх</text><text fill="#000000" stroke="none" font-family="Arial" font-size="13px" font-style="normal" font-weight="normal" text-decoration="none" x="246.2978515625" y="531.5">кольорів за величиною</text><text fill="#000000" stroke="none" font-family="Arial" font-size="13px" font-style="normal" font-weight="normal" text-decoration="none" x="292.00732421875" y="544.5">відстані</text></g></g><g transform="translate(-45,-62) scale(1,1)"><path fill="none" stroke="#000000" d="M 324 104 L 324 136" stroke-miterlimit="10"/></g><g transform="translate(-45,-62) scale(1,1)"><path fill="#000000" stroke="none" d="M 319.790482243984 125.83732514237585 L 324 136 L 328.209517756016 125.83732514237585"/></g><g transform="translate(-45,-62) scale(1,1)"><path fill="none" stroke="#000000" d="M 319.790482243984 125.83732514237585 L 324 136 L 328.209517756016 125.83732514237585 L 319.790482243984 125.83732514237585" stroke-miterlimit="10"/></g><g transform="translate(-45,-62) scale(1,1)"><path fill="none" stroke="#000000" d="M 325 181 L 325 224" stroke-miterlimit="10"/></g><g transform="translate(-45,-62) scale(1,1)"><path fill="#000000" stroke="none" d="M 320.790482243984 213.83732514237585 L 325 224 L 329.209517756016 213.83732514237585"/></g><g transform="translate(-45,-62) scale(1,1)"><path fill="none" stroke="#000000" d="M 320.790482243984 213.83732514237585 L 325 224 L 329.209517756016 213.83732514237585 L 320.790482243984 213.83732514237585" stroke-miterlimit="10"/></g><g transform="translate(-45,-62) scale(1,1)"><path fill="none" stroke="#000000" d="M 318 280 L 318 312" stroke-miterlimit="10"/></g><g transform="translate(-45,-62) scale(1,1)"><path fill="#000000" stroke="none" d="M 313.790482243984 301.83732514237585 L 318 312 L 322.209517756016 301.83732514237585"/></g><g transform="translate(-45,-62) scale(1,1)"><path fill="none" stroke="#000000" d="M 313.790482243984 301.83732514237585 L 318 312 L 322.209517756016 301.83732514237585 L 313.790482243984 301.83732514237585" stroke-miterlimit="10"/></g><g transform="translate(-45,-62) scale(1,1)"><path fill="none" stroke="#000000" d="M 315 376 L 315 408" stroke-miterlimit="10"/></g><g transform="translate(-45,-62) scale(1,1)"><path fill="#000000" stroke="none" d="M 310.790482243984 397.83732514237585 L 315 408 L 319.209517756016 397.83732514237585"/></g><g transform="translate(-45,-62) scale(1,1)"><path fill="none" stroke="#000000" d="M 310.790482243984 397.83732514237585 L 315 408 L 319.209517756016 397.83732514237585 L 310.790482243984 397.83732514237585" stroke-miterlimit="10"/></g><g transform="translate(-45,-62) scale(1,1)"><path fill="none" stroke="#000000" d="M 232 432 L 152 432 M 152 432 A 8 8 0 0 1 144 424 L 144 256 M 144 256 A 8 8 0 0 1 152 248 L 256 248" stroke-miterlimit="10"/></g><g transform="translate(-45,-62) scale(1,1)"><path fill="#000000" stroke="none" d="M 245.83732514237585 252.209517756016 L 256 248 L 245.83732514237585 243.790482243984"/></g><g transform="translate(-45,-62) scale(1,1)"><path fill="none" stroke="#000000" d="M 245.83732514237585 252.209517756016 L 256 248 L 245.83732514237585 243.790482243984 L 245.83732514237585 252.209517756016" stroke-miterlimit="10"/></g><g transform="translate(-45,-62) scale(1,1)"><g><path fill="none" stroke="none"/><text fill="#000000" stroke="none" font-family="Arial" font-size="13px" font-style="normal" font-weight="normal" text-decoration="none" x="80.185791015625" y="339.5">Наступна</text><text fill="#000000" stroke="none" font-family="Arial" font-size="13px" font-style="normal" font-weight="normal" text-decoration="none" x="84.889404296875" y="352.5">ітерація</text></g></g><g transform="translate(-45,-62) scale(1,1)"><path fill="none" stroke="#000000" d="M 383 248 L 520 248 M 520 248 A 8 8 0 0 1 528 256 L 528 512 M 528 512 A 8 8 0 0 1 520 520 L 399 520" stroke-miterlimit="10"/></g><g transform="translate(-45,-62) scale(1,1)"><path fill="#000000" stroke="none" d="M 409.16267485762415 515.790482243984 L 399 520 L 409.16267485762415 524.209517756016"/></g><g transform="translate(-45,-62) scale(1,1)"><path fill="none" stroke="#000000" d="M 409.16267485762415 515.790482243984 L 399 520 L 409.16267485762415 524.209517756016 L 409.16267485762415 515.790482243984" stroke-miterlimit="10"/></g><g transform="translate(-45,-62) scale(1,1)"><g><path fill="none" stroke="none"/><text fill="#000000" stroke="none" font-family="Arial" font-size="13px" font-style="normal" font-weight="normal" text-decoration="none" x="536.619140625" y="387.5">Вихід з</text><text fill="#000000" stroke="none" font-family="Arial" font-size="13px" font-style="normal" font-weight="normal" text-decoration="none" x="540.545166015625" y="400.5">циклу</text></g></g><g transform="translate(-45,-62) scale(1,1)"><path fill="#ffffff" stroke="none" d="M 258 576 L 392 576 L 366 621 L 232 621 L 258 576"/></g><g transform="translate(-45,-62) scale(1,1)"><path fill="none" stroke="#000000" d="M 258 576 L 392 576 L 366 621 L 232 621 L 258 576 L 258 576" stroke-miterlimit="10"/></g><g transform="translate(-45,-62) scale(1,1)"><g><path fill="none" stroke="none"/><text fill="#000000" stroke="none" font-family="Arial" font-size="13px" font-style="normal" font-weight="normal" text-decoration="none" x="295.34375" y="598.5">Вивід</text><text fill="#000000" stroke="none" font-family="Arial" font-size="13px" font-style="normal" font-weight="normal" text-decoration="none" x="279.55078125" y="611.5">результату</text></g></g><g transform="translate(-45,-62) scale(1,1)"><path fill="none" stroke="#000000" d="M 317 554 L 317 576" stroke-miterlimit="10"/></g><g transform="translate(-45,-62) scale(1,1)"><path fill="#000000" stroke="none" d="M 312.790482243984 565.8373251423759 L 317 576 L 321.209517756016 565.8373251423759"/></g><g transform="translate(-45,-62) scale(1,1)"><path fill="none" stroke="#000000" d="M 312.790482243984 565.8373251423759 L 317 576 L 321.209517756016 565.8373251423759 L 312.790482243984 565.8373251423759" stroke-miterlimit="10"/></g><g transform="translate(-45,-62) scale(1,1)"><path fill="none" stroke="#000000" d="M 315 621 L 315 656" stroke-miterlimit="10"/></g><g transform="translate(-45,-62) scale(1,1)"><path fill="#000000" stroke="none" d="M 310.790482243984 645.8373251423759 L 315 656 L 319.209517756016 645.8373251423759"/></g><g transform="translate(-45,-62) scale(1,1)"><path fill="none" stroke="#000000" d="M 310.790482243984 645.8373251423759 L 315 656 L 319.209517756016 645.8373251423759 L 310.790482243984 645.8373251423759" stroke-miterlimit="10"/></g></g></svg>