<svg version="1.1" xmlns="http://www.w3.org/2000/svg" xmlns:xlink="http://www.w3.org/1999/xlink" width="388" height="788"><defs/><g><text fill="#eeeeee" stroke="none" font-family="Arial" font-size="24px" font-style="normal" font-weight="normal" text-decoration="none" x="0" y="0"></text><text fill="#eeeeee" stroke="none" font-family="Arial" font-size="24px" font-style="normal" font-weight="normal" text-decoration="none" x="0" y="30"></text><text fill="#eeeeee" stroke="none" font-family="Arial" font-size="24px" font-style="normal" font-weight="normal" text-decoration="none" x="0" y="60"></text><text fill="#eeeeee" stroke="none" font-family="Arial" font-size="24px" font-style="normal" font-weight="normal" text-decoration="none" x="0" y="90"></text><text fill="#eeeeee" stroke="none" font-family="Arial" font-size="24px" font-style="normal" font-weight="normal" text-decoration="none" x="0" y="120"></text><text fill="#eeeeee" stroke="none" font-family="Arial" font-size="24px" font-style="normal" font-weight="normal" text-decoration="none" x="0" y="150"></text><text fill="#eeeeee" stroke="none" font-family="Arial" font-size="24px" font-style="normal" font-weight="normal" text-decoration="none" x="0" y="180"></text><text fill="#eeeeee" stroke="none" font-family="Arial" font-size="24px" font-style="normal" font-weight="normal" text-decoration="none" x="0" y="210"></text><text fill="#eeeeee" stroke="none" font-family="Arial" font-size="24px" font-style="normal" font-weight="normal" text-decoration="none" x="0" y="240"></text><text fill="#eeeeee" stroke="none" font-family="Arial" font-size="24px" font-style="normal" font-weight="normal" text-decoration="none" x="0" y="270"></text><text fill="#eeeeee" stroke="none" font-family="Arial" font-size="24px" font-style="normal" font-weight="normal" text-decoration="none" x="0" y="300"></text><text fill="#eeeeee" stroke="none" font-family="Arial" font-size="24px" font-style="normal" font-weight="normal" text-decoration="none" x="0" y="330"></text><text fill="#eeeeee" stroke="none" font-family="Arial" font-size="24px" font-style="normal" font-weight="normal" text-decoration="none" x="0" y="360"></text><text fill="#eeeeee" stroke="none" font-family="Arial" font-size="24px" font-style="normal" font-weight="normal" text-decoration="none" x="0" y="390"></text><text fill="#eeeeee" stroke="none" font-family="Arial" font-size="24px" font-style="normal" font-weight="normal" text-decoration="none" x="0" y="420"></text><text fill="#eeeeee" stroke="none" font-family="Arial" font-size="24px" font-style="normal" font-weight="normal" text-decoration="none" x="0" y="450"></text><text fill="#eeeeee" stroke="none" font-family="Arial" font-size="24px" font-style="normal" font-weight="normal" text-decoration="none" x="0" y="480"></text><text fill="#eeeeee" stroke="none" font-family="Arial" font-size="24px" font-style="normal" font-weight="normal" text-decoration="none" x="0" y="510"></text><text fill="#eeeeee" stroke="none" font-family="Arial" font-size="24px" font-style="normal" font-weight="normal" text-decoration="none" x="0" y="540"></text><text fill="#eeeeee" stroke="none" font-family="Arial" font-size="24px" font-style="normal" font-weight="normal" text-decoration="none" x="0" y="570"></text><text fill="#eeeeee" stroke="none" font-family="Arial" font-size="24px" font-style="normal" font-weight="normal" text-decoration="none" x="0" y="600"></text><text fill="#eeeeee" stroke="none" font-family="Arial" font-size="24px" font-style="normal" font-weight="normal" text-decoration="none" x="0" y="630"></text><text fill="#eeeeee" stroke="none" font-family="Arial" font-size="24px" font-style="normal" font-weight="normal" text-decoration="none" x="0" y="660"></text><text fill="#eeeeee" stroke="none" font-family="Arial" font-size="24px" font-style="normal" font-weight="normal" text-decoration="none" x="0" y="690"></text><text fill="#eeeeee" stroke="none" font-family="Arial" font-size="24px" font-style="normal" font-weight="normal" text-decoration="none" x="0" y="720"></text><text fill="#eeeeee" stroke="none" font-family="Arial" font-size="24px" font-style="normal" font-weight="normal" text-decoration="none" x="0" y="750"></text><text fill="#eeeeee" stroke="none" font-family="Arial" font-size="24px" font-style="normal" font-weight="normal" text-decoration="none" x="0" y="780"></text><text fill="#eeeeee" stroke="none" font-family="Arial" font-size="24px" font-style="normal" font-weight="normal" text-decoration="none" x="200" y="0"></text><text fill="#eeeeee" stroke="none" font-family="Arial" font-size="24px" font-style="normal" font-weight="normal" text-decoration="none" x="200" y="30"></text><text fill="#eeeeee" stroke="none" font-family="Arial" font-size="24px" font-style="normal" font-weight="normal" text-decoration="none" x="200" y="60"></text><text fill="#eeeeee" stroke="none" font-family="Arial" font-size="24px" font-style="normal" font-weight="normal" text-decoration="none" x="200" y="90"></text><text fill="#eeeeee" stroke="none" font-family="Arial" font-size="24px" font-style="normal" font-weight="normal" text-decoration="none" x="200" y="120"></text><text fill="#eeeeee" stroke="none" font-family="Arial" font-size="24px" font-style="normal" font-weight="normal" text-decoration="none" x="200" y="150"></text><text fill="#eeeeee" stroke="none" font-family="Arial" font-size="24px" font-style="normal" font-weight="normal" text-decoration="none" x="200" y="180"></text><text fill="#eeeeee" stroke="none" font-family="Arial" font-size="24px" font-style="normal" font-weight="normal" text-decoration="none" x="200" y="210"></text><text fill="#eeeeee" stroke="none" font-family="Arial" font-size="24px" font-style="normal" font-weight="normal" text-decoration="none" x="200" y="240"></text><text fill="#eeeeee" stroke="none" font-family="Arial" font-size="24px" font-style="normal" font-weight="normal" text-decoration="none" x="200" y="270"></text><text fill="#eeeeee" stroke="none" font-family="Arial" font-size="24px" font-style="normal" font-weight="normal" text-decoration="none" x="200" y="300"></text><text fill="#eeeeee" stroke="none" font-family="Arial" font-size="24px" font-style="normal" font-weight="normal" text-decoration="none" x="200" y="330"></text><text fill="#eeeeee" stroke="none" font-family="Arial" font-size="24px" font-style="normal" font-weight="normal" text-decoration="none" x="200" y="360"></text><text fill="#eeeeee" stroke="none" font-family="Arial" font-size="24px" font-style="normal" font-weight="normal" text-decoration="none" x="200" y="390"></text><text fill="#eeeeee" stroke="none" font-family="Arial" font-size="24px" font-style="normal" font-weight="normal" text-decoration="none" x="200" y="420"></text><text fill="#eeeeee" stroke="none" font-family="Arial" font-size="24px" font-style="normal" font-weight="normal" text-decoration="none" x="200" y="450"></text><text fill="#eeeeee" stroke="none" font-family="Arial" font-size="24px" font-style="normal" font-weight="normal" text-decoration="none" x="200" y="480"></text><text fill="#eeeeee" stroke="none" font-family="Arial" font-size="24px" font-style="normal" font-weight="normal" text-decoration="none" x="200" y="510"></text><text fill="#eeeeee" stroke="none" font-family="Arial" font-size="24px" font-style="normal" font-weight="normal" text-decoration="none" x="200" y="540"></text><text fill="#eeeeee" stroke="none" font-family="Arial" font-size="24px" font-style="normal" font-weight="normal" text-decoration="none" x="200" y="570"></text><text fill="#eeeeee" stroke="none" font-family="Arial" font-size="24px" font-style="normal" font-weight="normal" text-decoration="none" x="200" y="600"></text><text fill="#eeeeee" stroke="none" font-family="Arial" font-size="24px" font-style="normal" font-weight="normal" text-decoration="none" x="200" y="630"></text><text fill="#eeeeee" stroke="none" font-family="Arial" font-size="24px" font-style="normal" font-weight="normal" text-decoration="none" x="200" y="660"></text><text fill="#eeeeee" stroke="none" font-family="Arial" font-size="24px" font-style="normal" font-weight="normal" text-decoration="none" x="200" y="690"></text><text fill="#eeeeee" stroke="none" font-family="Arial" font-size="24px" font-style="normal" font-weight="normal" text-decoration="none" x="200" y="720"></text><text fill="#eeeeee" stroke="none" font-family="Arial" font-size="24px" font-style="normal" font-weight="normal" text-decoration="none" x="200" y="750"></text><text fill="#eeeeee" stroke="none" font-family="Arial" font-size="24px" font-style="normal" font-weight="normal" text-decoration="none" x="200" y="780"></text><g transform="translate(-70,-6) scale(1,1)"><path fill="#ffffff" stroke="none" d="M 119.10581818181817 137.84 C 119.10581818181817 128.539523968 126.4457425733818 121 135.5 121 C 144.5542574266182 121 151.89418181818183 128.539523968 151.89418181818183 137.84 C 151.89418181818183 147.140476032 144.5542574266182 154.68 135.5 154.68 C 126.4457425733818 154.68 119.10581818181817 147.140476032 119.10581818181817 137.84 Z"/></g><g transform="translate(-70,-6) scale(1,1)"><path fill="none" stroke="#000000" d="M 119.10581818181817 137.84 C 119.10581818181817 128.539523968 126.4457425733818 121 135.5 121 C 144.5542574266182 121 151.89418181818183 128.539523968 151.89418181818183 137.84 C 151.89418181818183 147.140476032 144.5542574266182 154.68 135.5 154.68 C 126.4457425733818 154.68 119.10581818181817 147.140476032 119.10581818181817 137.84 Z" stroke-miterlimit="10"/></g><g transform="translate(-70,-6) scale(1,1)"><path fill="none" stroke="#000000" d="M 135.5 154.68 L 135.5 187.32" stroke-miterlimit="10"/></g><g transform="translate(-70,-6) scale(1,1)"><path fill="none" stroke="#000000" d="M 118.14145454545454 166.92000000000002 L 152.85854545454546 166.92000000000002" stroke-miterlimit="10"/></g><g transform="translate(-70,-6) scale(1,1)"><path fill="none" stroke="#000000" d="M 135.5 187.32 L 111.39090909090908 221" stroke-miterlimit="10"/></g><g transform="translate(-70,-6) scale(1,1)"><path fill="none" stroke="#000000" d="M 135.5 187.32 L 159.60909090909092 221" stroke-miterlimit="10"/></g><g transform="translate(-70,-6) scale(1,1)"><g><path fill="none" stroke="none"/><text fill="#000000" stroke="none" font-family="Arial" font-size="13px" font-style="normal" font-weight="bold" text-decoration="none" x="120.922607421875" y="241.5">Гість</text></g></g><g transform="translate(-70,-6) scale(1,1)"><path fill="#ffffff" stroke="none" d="M 110.15927272727272 323.37 C 110.15927272727272 313.224528224 118.14683750632727 305 128 305 C 137.85316249367273 305 145.8407272727273 313.224528224 145.8407272727273 323.37 C 145.8407272727273 333.515471776 137.85316249367273 341.74 128 341.74 C 118.14683750632727 341.74 110.15927272727272 333.515471776 110.15927272727272 323.37 Z"/></g><g transform="translate(-70,-6) scale(1,1)"><path fill="none" stroke="#000000" d="M 110.15927272727272 323.37 C 110.15927272727272 313.224528224 118.14683750632727 305 128 305 C 137.85316249367273 305 145.8407272727273 313.224528224 145.8407272727273 323.37 C 145.8407272727273 333.515471776 137.85316249367273 341.74 128 341.74 C 118.14683750632727 341.74 110.15927272727272 333.515471776 110.15927272727272 323.37 Z" stroke-miterlimit="10"/></g><g transform="translate(-70,-6) scale(1,1)"><path fill="none" stroke="#000000" d="M 128 341.74 L 128 377.26" stroke-miterlimit="10"/></g><g transform="translate(-70,-6) scale(1,1)"><path fill="none" stroke="#000000" d="M 109.10981818181817 355.06 L 146.89018181818182 355.06" stroke-miterlimit="10"/></g><g transform="translate(-70,-6) scale(1,1)"><path fill="none" stroke="#000000" d="M 128 377.26 L 101.76363636363635 414" stroke-miterlimit="10"/></g><g transform="translate(-70,-6) scale(1,1)"><path fill="none" stroke="#000000" d="M 128 377.26 L 154.23636363636365 414" stroke-miterlimit="10"/></g><g transform="translate(-70,-6) scale(1,1)"><g><path fill="none" stroke="none"/><text fill="#000000" stroke="none" font-family="Arial" font-size="13px" font-style="normal" font-weight="bold" text-decoration="none" x="109.093505859375" y="434.5">Клієнт</text></g></g><g transform="translate(-70,-6) scale(1,1)"><path fill="#ffffff" stroke="none" d="M 113.24789577414772 515.37 C 113.24789577414772 505.224528224 121.23546055320227 497 131.088623046875 497 C 140.94178554054773 497 148.9293503196023 505.224528224 148.9293503196023 515.37 C 148.9293503196023 525.515471776 140.94178554054773 533.74 131.088623046875 533.74 C 121.23546055320227 533.74 113.24789577414772 525.515471776 113.24789577414772 515.37 Z"/></g><g transform="translate(-70,-6) scale(1,1)"><path fill="none" stroke="#000000" d="M 113.24789577414772 515.37 C 113.24789577414772 505.224528224 121.23546055320227 497 131.088623046875 497 C 140.94178554054773 497 148.9293503196023 505.224528224 148.9293503196023 515.37 C 148.9293503196023 525.515471776 140.94178554054773 533.74 131.088623046875 533.74 C 121.23546055320227 533.74 113.24789577414772 525.515471776 113.24789577414772 515.37 Z" stroke-miterlimit="10"/></g><g transform="translate(-70,-6) scale(1,1)"><path fill="none" stroke="#000000" d="M 131.088623046875 533.74 L 131.088623046875 569.26" stroke-miterlimit="10"/></g><g transform="translate(-70,-6) scale(1,1)"><path fill="none" stroke="#000000" d="M 112.19844122869317 547.06 L 149.97880486505682 547.06" stroke-miterlimit="10"/></g><g transform="translate(-70,-6) scale(1,1)"><path fill="none" stroke="#000000" d="M 131.088623046875 569.26 L 104.85225941051135 606" stroke-miterlimit="10"/></g><g transform="translate(-70,-6) scale(1,1)"><path fill="none" stroke="#000000" d="M 131.088623046875 569.26 L 157.32498668323865 606" stroke-miterlimit="10"/></g><g transform="translate(-70,-6) scale(1,1)"><g><path fill="none" stroke="none"/><text fill="#000000" stroke="none" font-family="Arial" font-size="13px" font-style="normal" font-weight="bold" text-decoration="none" x="88.565673828125" y="626.5">Адміністратор</text></g></g><g transform="translate(-70,-6) scale(1,1)"><path fill="#C0C0C0" stroke="none" d="M 286 59 C 286 39.1177472 321.36950079999997 23 365 23 C 408.63049920000003 23 444 39.1177472 444 59 C 444 78.8822528 408.63049920000003 95 365 95 C 321.36950079999997 95 286 78.8822528 286 59 Z" opacity="0.2"/></g><g transform="translate(-70,-6) scale(1,1)"><path fill="#ffffff" stroke="none" d="M 279 52 C 279 32.1177472 314.36950079999997 16 358 16 C 401.63049920000003 16 437 32.1177472 437 52 C 437 71.8822528 401.63049920000003 88 358 88 C 314.36950079999997 88 279 71.8822528 279 52 Z"/></g><g transform="translate(-70,-6) scale(1,1)"><path fill="none" stroke="#000000" d="M 279 52 C 279 32.1177472 314.36950079999997 16 358 16 C 401.63049920000003 16 437 32.1177472 437 52 C 437 71.8822528 401.63049920000003 88 358 88 C 314.36950079999997 88 279 71.8822528 279 52 Z" stroke-miterlimit="10"/></g><g transform="translate(-70,-6) scale(1,1)"><g><path fill="none" stroke="none"/><text fill="#000000" stroke="none" font-family="Arial" font-size="13px" font-style="normal" font-weight="bold" text-decoration="none" x="324.874755859375" y="59">Реєстрація</text></g></g><g transform="translate(-70,-6) scale(1,1)"><path fill="none" stroke="#000000" d="M 184 154 L 295 89" stroke-miterlimit="10"/></g><g transform="translate(-70,-6) scale(1,1)"><path fill="none" stroke="#000000" d="M 184 196 L 278 220" stroke-miterlimit="10"/></g><g transform="translate(-70,-6) scale(1,1)"><path fill="none" stroke="#000000" d="M 184 213 L 304 287" stroke-miterlimit="10"/></g><g transform="translate(-70,-6) scale(1,1)"><path fill="none" stroke="#000000" d="M 184 232 L 321 367" stroke-miterlimit="10"/></g><g transform="translate(-70,-6) scale(1,1)"><path fill="none" stroke="#000000" d="M 169 332 L 320 185" stroke-miterlimit="10"/></g><g transform="translate(-70,-6) scale(1,1)"><path fill="none" stroke="#000000" d="M 169 348 L 301 273" stroke-miterlimit="10"/></g><g transform="translate(-70,-6) scale(1,1)"><path fill="none" stroke="#000000" d="M 169 363 L 278 338" stroke-miterlimit="10"/></g><g transform="translate(-70,-6) scale(1,1)"><path fill="none" stroke="#000000" d="M 169 378 L 278 393" stroke-miterlimit="10"/></g><g transform="translate(-70,-6) scale(1,1)"><path fill="none" stroke="#000000" d="M 183 547 L 278 517" stroke-miterlimit="10"/></g><g transform="translate(-70,-6) scale(1,1)"><path fill="none" stroke="#000000" d="M 183 592 L 288 647" stroke-miterlimit="10"/></g><g transform="translate(-70,-6) scale(1,1)"><path fill="none" stroke="#000000" d="M 183 608 L 324 727" stroke-miterlimit="10"/></g><g transform="translate(-70,-6) scale(1,1)"><path fill="none" stroke="#000000" d="M 183 527 L 306 441" stroke-miterlimit="10"/></g><g transform="translate(-70,-6) scale(1,1)"><path fill="none" stroke="#000000" d="M 183 508 L 327 353" stroke-miterlimit="10"/></g><g transform="translate(-70,-6) scale(1,1)"><path fill="none" stroke="#000000" d="M 179 495 L 335 273" stroke-miterlimit="10"/></g><g transform="translate(-70,-6) scale(1,1)"><path fill="none" stroke="#000000" d="M 169 495 L 338 185" stroke-miterlimit="10"/></g><g transform="translate(-70,-6) scale(1,1)"><path fill="#C0C0C0" stroke="none" d="M 286 763 C 286 747.5360256 321.36950079999997 735 365 735 C 408.63049920000003 735 444 747.5360256 444 763 C 444 778.4639744 408.63049920000003 791 365 791 C 321.36950079999997 791 286 778.4639744 286 763 Z" opacity="0.2"/></g><g transform="translate(-70,-6) scale(1,1)"><path fill="#ffffff" stroke="none" d="M 279 756 C 279 740.5360256 314.36950079999997 728 358 728 C 401.63049920000003 728 437 740.5360256 437 756 C 437 771.4639744 401.63049920000003 784 358 784 C 314.36950079999997 784 279 771.4639744 279 756 Z"/></g><g transform="translate(-70,-6) scale(1,1)"><path fill="none" stroke="#000000" d="M 279 756 C 279 740.5360256 314.36950079999997 728 358 728 C 401.63049920000003 728 437 740.5360256 437 756 C 437 771.4639744 401.63049920000003 784 358 784 C 314.36950079999997 784 279 771.4639744 279 756 Z" stroke-miterlimit="10"/></g><g transform="translate(-70,-6) scale(1,1)"><g><path fill="none" stroke="none"/><text fill="#000000" stroke="none" font-family="Arial" font-size="13px" font-style="normal" font-weight="bold" text-decoration="none" x="319.75537109375" y="756.5">Редагування</text><text fill="#000000" stroke="none" font-family="Arial" font-size="13px" font-style="normal" font-weight="bold" text-decoration="none" x="321.22802734375" y="769.5">списку лаків</text></g></g><g transform="translate(-70,-6) scale(1,1)"><path fill="#C0C0C0" stroke="none" d="M 286 691 C 286 671.1177472 321.36950079999997 655 365 655 C 408.63049920000003 655 444 671.1177472 444 691 C 444 710.8822528 408.63049920000003 727 365 727 C 321.36950079999997 727 286 710.8822528 286 691 Z" opacity="0.2"/></g><g transform="translate(-70,-6) scale(1,1)"><path fill="#ffffff" stroke="none" d="M 279 684 C 279 664.1177472 314.36950079999997 648 358 648 C 401.63049920000003 648 437 664.1177472 437 684 C 437 703.8822528 401.63049920000003 720 358 720 C 314.36950079999997 720 279 703.8822528 279 684 Z"/></g><g transform="translate(-70,-6) scale(1,1)"><path fill="none" stroke="#000000" d="M 279 684 C 279 664.1177472 314.36950079999997 648 358 648 C 401.63049920000003 648 437 664.1177472 437 684 C 437 703.8822528 401.63049920000003 720 358 720 C 314.36950079999997 720 279 703.8822528 279 684 Z" stroke-miterlimit="10"/></g><g transform="translate(-70,-6) scale(1,1)"><g><path fill="none" stroke="none"/><text fill="#000000" stroke="none" font-family="Arial" font-size="13px" font-style="normal" font-weight="bold" text-decoration="none" x="319.75537109375" y="684.5">Редагування</text><text fill="#000000" stroke="none" font-family="Arial" font-size="13px" font-style="normal" font-weight="bold" text-decoration="none" x="313.144287109375" y="697.5">списку брендів</text></g></g><g transform="translate(-70,-6) scale(1,1)"><path fill="#C0C0C0" stroke="none" d="M 286 499.5 C 286 474.9233264 321.36950079999997 455 365 455 C 408.63049920000003 455 444 474.9233264 444 499.5 C 444 524.0766736 408.63049920000003 544 365 544 C 321.36950079999997 544 286 524.0766736 286 499.5 Z" opacity="0.2"/></g><g transform="translate(-70,-6) scale(1,1)"><path fill="#ffffff" stroke="none" d="M 279 492.5 C 279 467.9233264 314.36950079999997 448 358 448 C 401.63049920000003 448 437 467.9233264 437 492.5 C 437 517.0766736 401.63049920000003 537 358 537 C 314.36950079999997 537 279 517.0766736 279 492.5 Z"/></g><g transform="translate(-70,-6) scale(1,1)"><path fill="none" stroke="#000000" d="M 279 492.5 C 279 467.9233264 314.36950079999997 448 358 448 C 401.63049920000003 448 437 467.9233264 437 492.5 C 437 517.0766736 401.63049920000003 537 358 537 C 314.36950079999997 537 279 517.0766736 279 492.5 Z" stroke-miterlimit="10"/></g><g transform="translate(-70,-6) scale(1,1)"><g><path fill="none" stroke="none"/><text fill="#000000" stroke="none" font-family="Arial" font-size="13px" font-style="normal" font-weight="bold" text-decoration="none" x="319.75537109375" y="480">Редагування</text><text fill="#000000" stroke="none" font-family="Arial" font-size="13px" font-style="normal" font-weight="bold" text-decoration="none" x="338.1826171875" y="493">списку</text><text fill="#000000" stroke="none" font-family="Arial" font-size="13px" font-style="normal" font-weight="bold" text-decoration="none" x="324.916015625" y="506">улюблених</text><text fill="#000000" stroke="none" font-family="Arial" font-size="13px" font-style="normal" font-weight="bold" text-decoration="none" x="326.176025390625" y="519">матеріалів</text></g></g><g transform="translate(-70,-6) scale(1,1)"><path fill="#C0C0C0" stroke="none" d="M 286 411 C 286 391.1177472 321.36950079999997 375 365 375 C 408.63049920000003 375 444 391.1177472 444 411 C 444 430.8822528 408.63049920000003 447 365 447 C 321.36950079999997 447 286 430.8822528 286 411 Z" opacity="0.2"/></g><g transform="translate(-70,-6) scale(1,1)"><path fill="#ffffff" stroke="none" d="M 279 404 C 279 384.1177472 314.36950079999997 368 358 368 C 401.63049920000003 368 437 384.1177472 437 404 C 437 423.8822528 401.63049920000003 440 358 440 C 314.36950079999997 440 279 423.8822528 279 404 Z"/></g><g transform="translate(-70,-6) scale(1,1)"><path fill="none" stroke="#000000" d="M 279 404 C 279 384.1177472 314.36950079999997 368 358 368 C 401.63049920000003 368 437 384.1177472 437 404 C 437 423.8822528 401.63049920000003 440 358 440 C 314.36950079999997 440 279 423.8822528 279 404 Z" stroke-miterlimit="10"/></g><g transform="translate(-70,-6) scale(1,1)"><g><path fill="none" stroke="none"/><text fill="#000000" stroke="none" font-family="Arial" font-size="13px" font-style="normal" font-weight="bold" text-decoration="none" x="313.049072265625" y="404.5">Пошук лаків за</text><text fill="#000000" stroke="none" font-family="Arial" font-size="13px" font-style="normal" font-weight="bold" text-decoration="none" x="331.5810546875" y="417.5">брендом</text></g></g><g transform="translate(-70,-6) scale(1,1)"><path fill="#C0C0C0" stroke="none" d="M 286 327 C 286 309.3268864 321.36950079999997 295 365 295 C 408.63049920000003 295 444 309.3268864 444 327 C 444 344.6731136 408.63049920000003 359 365 359 C 321.36950079999997 359 286 344.6731136 286 327 Z" opacity="0.2"/></g><g transform="translate(-70,-6) scale(1,1)"><path fill="#ffffff" stroke="none" d="M 279 320 C 279 302.3268864 314.36950079999997 288 358 288 C 401.63049920000003 288 437 302.3268864 437 320 C 437 337.6731136 401.63049920000003 352 358 352 C 314.36950079999997 352 279 337.6731136 279 320 Z"/></g><g transform="translate(-70,-6) scale(1,1)"><path fill="none" stroke="#000000" d="M 279 320 C 279 302.3268864 314.36950079999997 288 358 288 C 401.63049920000003 288 437 302.3268864 437 320 C 437 337.6731136 401.63049920000003 352 358 352 C 314.36950079999997 352 279 337.6731136 279 320 Z" stroke-miterlimit="10"/></g><g transform="translate(-70,-6) scale(1,1)"><g><path fill="none" stroke="none"/><text fill="#000000" stroke="none" font-family="Arial" font-size="13px" font-style="normal" font-weight="bold" text-decoration="none" x="316.019775390625" y="320.5">Перегляд всіх</text><text fill="#000000" stroke="none" font-family="Arial" font-size="13px" font-style="normal" font-weight="bold" text-decoration="none" x="342.851318359375" y="333.5">лаків</text></g></g><g transform="translate(-70,-6) scale(1,1)"><path fill="#C0C0C0" stroke="none" d="M 286 247 C 286 229.3268864 321.36950079999997 215 365 215 C 408.63049920000003 215 444 229.3268864 444 247 C 444 264.6731136 408.63049920000003 279 365 279 C 321.36950079999997 279 286 264.6731136 286 247 Z" opacity="0.2"/></g><g transform="translate(-70,-6) scale(1,1)"><path fill="#ffffff" stroke="none" d="M 279 240 C 279 222.3268864 314.36950079999997 208 358 208 C 401.63049920000003 208 437 222.3268864 437 240 C 437 257.6731136 401.63049920000003 272 358 272 C 314.36950079999997 272 279 257.6731136 279 240 Z"/></g><g transform="translate(-70,-6) scale(1,1)"><path fill="none" stroke="#000000" d="M 279 240 C 279 222.3268864 314.36950079999997 208 358 208 C 401.63049920000003 208 437 222.3268864 437 240 C 437 257.6731136 401.63049920000003 272 358 272 C 314.36950079999997 272 279 257.6731136 279 240 Z" stroke-miterlimit="10"/></g><g transform="translate(-70,-6) scale(1,1)"><g><path fill="none" stroke="none"/><text fill="#000000" stroke="none" font-family="Arial" font-size="13px" font-style="normal" font-weight="bold" text-decoration="none" x="313.049072265625" y="240.5">Пошук лаків за</text><text fill="#000000" stroke="none" font-family="Arial" font-size="13px" font-style="normal" font-weight="bold" text-decoration="none" x="317.39404296875" y="253.5">зображенням</text></g></g><g transform="translate(-70,-6) scale(1,1)"><path fill="#C0C0C0" stroke="none" d="M 286 155 C 286 135.1177472 321.36950079999997 119 365 119 C 408.63049920000003 119 444 135.1177472 444 155 C 444 174.8822528 408.63049920000003 191 365 191 C 321.36950079999997 191 286 174.8822528 286 155 Z" opacity="0.2"/></g><g transform="translate(-70,-6) scale(1,1)"><path fill="#ffffff" stroke="none" d="M 279 148 C 279 128.1177472 314.36950079999997 112 358 112 C 401.63049920000003 112 437 128.1177472 437 148 C 437 167.8822528 401.63049920000003 184 358 184 C 314.36950079999997 184 279 167.8822528 279 148 Z"/></g><g transform="translate(-70,-6) scale(1,1)"><path fill="none" stroke="#000000" d="M 279 148 C 279 128.1177472 314.36950079999997 112 358 112 C 401.63049920000003 112 437 128.1177472 437 148 C 437 167.8822528 401.63049920000003 184 358 184 C 314.36950079999997 184 279 167.8822528 279 148 Z" stroke-miterlimit="10"/></g><g transform="translate(-70,-6) scale(1,1)"><g><path fill="none" stroke="none"/><text fill="#000000" stroke="none" font-family="Arial" font-size="13px" font-style="normal" font-weight="bold" text-decoration="none" x="313.744140625" y="155">Вхід в систему</text></g></g><g transform="translate(-70,-6) scale(1,1)"><path fill="#C0C0C0" stroke="none" d="M 287 599 C 287 576.908608 324.6080768 559 371 559 C 417.3919232 559 455 576.908608 455 599 C 455 621.091392 417.3919232 639 371 639 C 324.6080768 639 287 621.091392 287 599 Z" opacity="0.2"/></g><g transform="translate(-70,-6) scale(1,1)"><path fill="#ffffff" stroke="none" d="M 280 592 C 280 569.908608 317.6080768 552 364 552 C 410.3919232 552 448 569.908608 448 592 C 448 614.091392 410.3919232 632 364 632 C 317.6080768 632 280 614.091392 280 592 Z"/></g><g transform="translate(-70,-6) scale(1,1)"><path fill="none" stroke="#000000" d="M 280 592 C 280 569.908608 317.6080768 552 364 552 C 410.3919232 552 448 569.908608 448 592 C 448 614.091392 410.3919232 632 364 632 C 317.6080768 632 280 614.091392 280 592 Z" stroke-miterlimit="10"/></g><g transform="translate(-70,-6) scale(1,1)"><g><path fill="none" stroke="none"/><text fill="#000000" stroke="none" font-family="Arial" font-size="13px" font-style="normal" font-weight="bold" text-decoration="none" x="325.75537109375" y="586">Редагування</text><text fill="#000000" stroke="none" font-family="Arial" font-size="13px" font-style="normal" font-weight="bold" text-decoration="none" x="344.1826171875" y="599">списку</text><text fill="#000000" stroke="none" font-family="Arial" font-size="13px" font-style="normal" font-weight="bold" text-decoration="none" x="317.30029296875" y="612">адміністраторів</text></g></g><g transform="translate(-70,-6) scale(1,1)"><path fill="none" stroke="#000000" d="M 183 570 L 279 582" stroke-miterlimit="10"/></g><g transform="translate(-70,-6) scale(1,1)"><path fill="none" stroke="#000000" d="M 169 393 L 278 450" stroke-miterlimit="10"/></g></g></svg>